<svg width="256" height="40" viewBox="0 0 256 40" fill="none" xmlns="http://www.w3.org/2000/svg">
<g clip-path="url(#clip0_1473_4602)">
<g clip-path="url(#clip1_1473_4602)">
<path d="M39.9956 17.5638C39.4726 13.1194 37.4347 8.92178 34.2573 5.74421C31.0799 2.56664 26.8824 0.528514 22.4379 0.00531195C22.2161 -0.0206255 21.9943 0.0492181 21.8275 0.197421C21.6608 0.345702 21.5654 0.558202 21.5654 0.781248V7.58483C21.5654 8.01623 21.9153 8.36608 22.3467 8.36608C22.7781 8.36608 23.1279 8.01623 23.1279 7.58483V1.68046C30.946 2.97312 37.0283 9.05576 38.3205 16.8739H23.1279V12.9747C23.1279 12.5433 22.7781 12.1935 22.3467 12.1935C21.9153 12.1935 21.5654 12.5433 21.5654 12.9747V17.6551C21.5654 18.0865 21.9153 18.4364 22.3467 18.4364H39.2198C39.4428 18.4364 39.6553 18.3411 39.8034 18.1743C39.9516 18.0075 40.0217 17.7854 39.9956 17.5638Z" fill="#7772F1"/>
<path d="M22.3467 9.45508C21.9153 9.45508 21.5654 9.80492 21.5654 10.2363V10.257C21.5654 10.6884 21.9153 11.0382 22.3467 11.0382C22.7782 11.0382 23.1279 10.6884 23.1279 10.257V10.2363C23.1279 9.80492 22.7781 9.45508 22.3467 9.45508Z" fill="#7772F1"/>
<path d="M18.4044 34.592C15.2513 34.5158 12.2664 33.4405 9.77262 31.4824C9.43309 31.2157 8.94207 31.2749 8.67567 31.6143C8.4091 31.9537 8.46825 32.4448 8.80762 32.7113C11.5685 34.8791 14.8739 36.0695 18.3667 36.154C18.3731 36.1541 18.3795 36.1542 18.3859 36.1542C18.8085 36.1542 19.1562 35.8168 19.1666 35.3919C19.1771 34.9606 18.8357 34.6025 18.4044 34.592Z" fill="#7772F1"/>
<path d="M21.394 35.1722C21.3428 34.7437 20.9537 34.4379 20.5257 34.489L20.5091 34.4909C20.0807 34.542 19.7748 34.9308 19.8259 35.3592C19.8732 35.7562 20.2105 36.0479 20.6007 36.0479C20.6316 36.0479 20.6628 36.0461 20.6942 36.0424L20.7108 36.0404C21.1392 35.9893 21.4451 35.6006 21.394 35.1722Z" fill="#7772F1"/>
<path d="M37.0312 20.3125C37.0174 20.3125 37.0036 20.3129 36.99 20.3136H19.6875V2.96875C19.6875 2.53734 19.3376 2.1875 18.9062 2.1875C13.8561 2.1875 9.10842 4.15414 5.53749 7.72499C1.96664 11.2959 0 16.0436 0 21.0937C0 26.1438 1.96664 30.8915 5.53749 34.4624C9.10842 38.0333 13.8561 39.9999 18.9062 39.9999C23.9563 39.9999 28.704 38.0333 32.2749 34.4624C35.8458 30.8915 37.8124 26.1438 37.8124 21.0937C37.8124 20.6622 37.4626 20.3125 37.0312 20.3125ZM18.9062 38.4374C9.34287 38.4374 1.5625 30.6571 1.5625 21.0937C1.5625 11.7924 8.92311 4.17773 18.125 3.76742V21.0948C18.125 21.355 18.2527 21.5849 18.4483 21.7268C18.4482 21.7271 18.4481 21.7273 18.448 21.7275L32.4738 31.885C29.2935 35.8753 24.3937 38.4374 18.9062 38.4374ZM33.3918 30.6206L21.317 21.8761H36.2325C36.0889 25.0953 35.0627 28.0885 33.3918 30.6206Z" fill="#7772F1"/>
</g>
<path d="M69.21 16.17C69.1367 16.3167 69.05 16.42 68.95 16.48C68.8567 16.54 68.7433 16.57 68.61 16.57C68.4767 16.57 68.3267 16.52 68.16 16.42C67.9933 16.3133 67.7967 16.1967 67.57 16.07C67.3433 15.9433 67.0767 15.83 66.77 15.73C66.47 15.6233 66.1133 15.57 65.7 15.57C65.3267 15.57 65 15.6167 64.72 15.71C64.4467 15.7967 64.2133 15.92 64.02 16.08C63.8333 16.24 63.6933 16.4333 63.6 16.66C63.5067 16.88 63.46 17.1233 63.46 17.39C63.46 17.73 63.5533 18.0133 63.74 18.24C63.9333 18.4667 64.1867 18.66 64.5 18.82C64.8133 18.98 65.17 19.1233 65.57 19.25C65.97 19.3767 66.3767 19.5133 66.79 19.66C67.21 19.8 67.62 19.9667 68.02 20.16C68.42 20.3467 68.7767 20.5867 69.09 20.88C69.4033 21.1667 69.6533 21.52 69.84 21.94C70.0333 22.36 70.13 22.87 70.13 23.47C70.13 24.1233 70.0167 24.7367 69.79 25.31C69.57 25.8767 69.2433 26.3733 68.81 26.8C68.3833 27.22 67.86 27.5533 67.24 27.8C66.62 28.04 65.91 28.16 65.11 28.16C64.65 28.16 64.1967 28.1133 63.75 28.02C63.3033 27.9333 62.8733 27.8067 62.46 27.64C62.0533 27.4733 61.67 27.2733 61.31 27.04C60.9567 26.8067 60.64 26.5467 60.36 26.26L61.14 24.97C61.2133 24.8767 61.3 24.8 61.4 24.74C61.5067 24.6733 61.6233 24.64 61.75 24.64C61.9167 24.64 62.0967 24.71 62.29 24.85C62.4833 24.9833 62.71 25.1333 62.97 25.3C63.2367 25.4667 63.5467 25.62 63.9 25.76C64.26 25.8933 64.69 25.96 65.19 25.96C65.9567 25.96 66.55 25.78 66.97 25.42C67.39 25.0533 67.6 24.53 67.6 23.85C67.6 23.47 67.5033 23.16 67.31 22.92C67.1233 22.68 66.8733 22.48 66.56 22.32C66.2467 22.1533 65.89 22.0133 65.49 21.9C65.09 21.7867 64.6833 21.6633 64.27 21.53C63.8567 21.3967 63.45 21.2367 63.05 21.05C62.65 20.8633 62.2933 20.62 61.98 20.32C61.6667 20.02 61.4133 19.6467 61.22 19.2C61.0333 18.7467 60.94 18.19 60.94 17.53C60.94 17.0033 61.0433 16.49 61.25 15.99C61.4633 15.49 61.77 15.0467 62.17 14.66C62.5767 14.2733 63.0733 13.9633 63.66 13.73C64.2467 13.4967 64.9167 13.38 65.67 13.38C66.5233 13.38 67.31 13.5133 68.03 13.78C68.75 14.0467 69.3633 14.42 69.87 14.9L69.21 16.17ZM81.3027 13.54V15.68H74.8927V19.69H79.9427V21.76H74.8927V25.85H81.3027V28H72.1827V13.54H81.3027ZM97.498 20.77C97.498 21.83 97.3213 22.8133 96.968 23.72C96.6146 24.62 96.118 25.4 95.478 26.06C94.838 26.72 94.068 27.2367 93.168 27.61C92.268 27.9767 91.2713 28.16 90.178 28.16C89.0846 28.16 88.0846 27.9767 87.178 27.61C86.278 27.2367 85.5046 26.72 84.858 26.06C84.218 25.4 83.7213 24.62 83.368 23.72C83.0146 22.8133 82.838 21.83 82.838 20.77C82.838 19.71 83.0146 18.73 83.368 17.83C83.7213 16.9233 84.218 16.14 84.858 15.48C85.5046 14.82 86.278 14.3067 87.178 13.94C88.0846 13.5667 89.0846 13.38 90.178 13.38C91.2713 13.38 92.268 13.5667 93.168 13.94C94.068 14.3133 94.838 14.83 95.478 15.49C96.118 16.1433 96.6146 16.9233 96.968 17.83C97.3213 18.73 97.498 19.71 97.498 20.77ZM94.738 20.77C94.738 19.9767 94.6313 19.2667 94.418 18.64C94.2113 18.0067 93.9113 17.47 93.518 17.03C93.1246 16.59 92.6446 16.2533 92.078 16.02C91.518 15.7867 90.8846 15.67 90.178 15.67C89.4713 15.67 88.8346 15.7867 88.268 16.02C87.7013 16.2533 87.218 16.59 86.818 17.03C86.4246 17.47 86.1213 18.0067 85.908 18.64C85.6946 19.2667 85.588 19.9767 85.588 20.77C85.588 21.5633 85.6946 22.2767 85.908 22.91C86.1213 23.5367 86.4246 24.07 86.818 24.51C87.218 24.9433 87.7013 25.2767 88.268 25.51C88.8346 25.7433 89.4713 25.86 90.178 25.86C90.8846 25.86 91.518 25.7433 92.078 25.51C92.6446 25.2767 93.1246 24.9433 93.518 24.51C93.9113 24.07 94.2113 23.5367 94.418 22.91C94.6313 22.2767 94.738 21.5633 94.738 20.77ZM113.431 24.59C113.578 24.59 113.705 24.6467 113.811 24.76L114.871 25.91C114.285 26.6367 113.561 27.1933 112.701 27.58C111.848 27.9667 110.821 28.16 109.621 28.16C108.548 28.16 107.581 27.9767 106.721 27.61C105.868 27.2433 105.138 26.7333 104.531 26.08C103.925 25.4267 103.458 24.6467 103.131 23.74C102.811 22.8333 102.651 21.8433 102.651 20.77C102.651 19.6833 102.831 18.69 103.191 17.79C103.551 16.8833 104.058 16.1033 104.711 15.45C105.365 14.7967 106.145 14.29 107.051 13.93C107.965 13.5633 108.971 13.38 110.071 13.38C111.145 13.38 112.081 13.5533 112.881 13.9C113.688 14.24 114.378 14.6933 114.951 15.26L114.051 16.51C113.998 16.59 113.928 16.66 113.841 16.72C113.761 16.78 113.648 16.81 113.501 16.81C113.348 16.81 113.191 16.75 113.031 16.63C112.871 16.51 112.668 16.38 112.421 16.24C112.175 16.1 111.861 15.97 111.481 15.85C111.108 15.73 110.631 15.67 110.051 15.67C109.371 15.67 108.745 15.79 108.171 16.03C107.605 16.2633 107.115 16.6 106.701 17.04C106.295 17.48 105.975 18.0167 105.741 18.65C105.515 19.2767 105.401 19.9833 105.401 20.77C105.401 21.5833 105.515 22.3067 105.741 22.94C105.975 23.5733 106.288 24.1067 106.681 24.54C107.075 24.9733 107.538 25.3067 108.071 25.54C108.605 25.7667 109.178 25.88 109.791 25.88C110.158 25.88 110.488 25.86 110.781 25.82C111.081 25.78 111.355 25.7167 111.601 25.63C111.855 25.5433 112.091 25.4333 112.311 25.3C112.538 25.16 112.761 24.99 112.981 24.79C113.048 24.73 113.118 24.6833 113.191 24.65C113.265 24.61 113.345 24.59 113.431 24.59ZM121.149 17.58C121.916 17.58 122.609 17.7033 123.229 17.95C123.856 18.1967 124.389 18.5467 124.829 19C125.269 19.4533 125.609 20.0067 125.849 20.66C126.089 21.3133 126.209 22.0433 126.209 22.85C126.209 23.6633 126.089 24.3967 125.849 25.05C125.609 25.7033 125.269 26.26 124.829 26.72C124.389 27.18 123.856 27.5333 123.229 27.78C122.609 28.0267 121.916 28.15 121.149 28.15C120.383 28.15 119.686 28.0267 119.059 27.78C118.433 27.5333 117.896 27.18 117.449 26.72C117.009 26.26 116.666 25.7033 116.419 25.05C116.179 24.3967 116.059 23.6633 116.059 22.85C116.059 22.0433 116.179 21.3133 116.419 20.66C116.666 20.0067 117.009 19.4533 117.449 19C117.896 18.5467 118.433 18.1967 119.059 17.95C119.686 17.7033 120.383 17.58 121.149 17.58ZM121.149 26.25C122.003 26.25 122.633 25.9633 123.039 25.39C123.453 24.8167 123.659 23.9767 123.659 22.87C123.659 21.7633 123.453 20.92 123.039 20.34C122.633 19.76 122.003 19.47 121.149 19.47C120.283 19.47 119.643 19.7633 119.229 20.35C118.816 20.93 118.609 21.77 118.609 22.87C118.609 23.97 118.816 24.81 119.229 25.39C119.643 25.9633 120.283 26.25 121.149 26.25ZM128.136 28V17.74H129.646C129.966 17.74 130.176 17.89 130.276 18.19L130.446 19C130.653 18.7867 130.87 18.5933 131.096 18.42C131.33 18.2467 131.573 18.0967 131.826 17.97C132.086 17.8433 132.363 17.7467 132.656 17.68C132.95 17.6133 133.27 17.58 133.616 17.58C134.176 17.58 134.673 17.6767 135.106 17.87C135.54 18.0567 135.9 18.3233 136.186 18.67C136.48 19.01 136.7 19.42 136.846 19.9C137 20.3733 137.076 20.8967 137.076 21.47V28H134.606V21.47C134.606 20.8433 134.46 20.36 134.166 20.02C133.88 19.6733 133.446 19.5 132.866 19.5C132.44 19.5 132.04 19.5967 131.666 19.79C131.293 19.9833 130.94 20.2467 130.606 20.58V28H128.136ZM142.874 28.16C141.987 28.16 141.304 27.91 140.824 27.41C140.344 26.9033 140.104 26.2067 140.104 25.32V19.59H139.064C138.93 19.59 138.814 19.5467 138.714 19.46C138.62 19.3733 138.574 19.2433 138.574 19.07V18.09L140.224 17.82L140.744 15.02C140.77 14.8867 140.83 14.7833 140.924 14.71C141.024 14.6367 141.147 14.6 141.294 14.6H142.574V17.83H145.274V19.59H142.574V25.15C142.574 25.47 142.654 25.72 142.814 25.9C142.974 26.08 143.187 26.17 143.454 26.17C143.607 26.17 143.734 26.1533 143.834 26.12C143.94 26.08 144.03 26.04 144.104 26C144.184 25.96 144.254 25.9233 144.314 25.89C144.374 25.85 144.434 25.83 144.494 25.83C144.567 25.83 144.627 25.85 144.674 25.89C144.72 25.9233 144.77 25.9767 144.824 26.05L145.564 27.25C145.204 27.55 144.79 27.7767 144.324 27.93C143.857 28.0833 143.374 28.16 142.874 28.16ZM151.478 17.58C152.125 17.58 152.718 17.6833 153.258 17.89C153.805 18.0967 154.275 18.4 154.668 18.8C155.061 19.1933 155.368 19.68 155.588 20.26C155.808 20.8333 155.918 21.49 155.918 22.23C155.918 22.4167 155.908 22.5733 155.888 22.7C155.875 22.82 155.845 22.9167 155.798 22.99C155.758 23.0567 155.701 23.1067 155.628 23.14C155.555 23.1667 155.461 23.18 155.348 23.18H149.008C149.081 24.2333 149.365 25.0067 149.858 25.5C150.351 25.9933 151.005 26.24 151.818 26.24C152.218 26.24 152.561 26.1933 152.848 26.1C153.141 26.0067 153.395 25.9033 153.608 25.79C153.828 25.6767 154.018 25.5733 154.178 25.48C154.345 25.3867 154.505 25.34 154.658 25.34C154.758 25.34 154.845 25.36 154.918 25.4C154.991 25.44 155.055 25.4967 155.108 25.57L155.828 26.47C155.555 26.79 155.248 27.06 154.908 27.28C154.568 27.4933 154.211 27.6667 153.838 27.8C153.471 27.9267 153.095 28.0167 152.708 28.07C152.328 28.1233 151.958 28.15 151.598 28.15C150.885 28.15 150.221 28.0333 149.608 27.8C148.995 27.56 148.461 27.21 148.008 26.75C147.555 26.2833 147.198 25.71 146.938 25.03C146.678 24.3433 146.548 23.55 146.548 22.65C146.548 21.95 146.661 21.2933 146.888 20.68C147.115 20.06 147.438 19.5233 147.858 19.07C148.285 18.61 148.801 18.2467 149.408 17.98C150.021 17.7133 150.711 17.58 151.478 17.58ZM151.528 19.35C150.808 19.35 150.245 19.5533 149.838 19.96C149.431 20.3667 149.171 20.9433 149.058 21.69H153.698C153.698 21.37 153.655 21.07 153.568 20.79C153.481 20.5033 153.348 20.2533 153.168 20.04C152.988 19.8267 152.761 19.66 152.488 19.54C152.215 19.4133 151.895 19.35 151.528 19.35ZM157.922 28V17.74H159.432C159.752 17.74 159.962 17.89 160.062 18.19L160.232 19C160.438 18.7867 160.655 18.5933 160.882 18.42C161.115 18.2467 161.358 18.0967 161.612 17.97C161.872 17.8433 162.148 17.7467 162.442 17.68C162.735 17.6133 163.055 17.58 163.402 17.58C163.962 17.58 164.458 17.6767 164.892 17.87C165.325 18.0567 165.685 18.3233 165.972 18.67C166.265 19.01 166.485 19.42 166.632 19.9C166.785 20.3733 166.862 20.8967 166.862 21.47V28H164.392V21.47C164.392 20.8433 164.245 20.36 163.952 20.02C163.665 19.6733 163.232 19.5 162.652 19.5C162.225 19.5 161.825 19.5967 161.452 19.79C161.078 19.9833 160.725 20.2467 160.392 20.58V28H157.922ZM172.659 28.16C171.772 28.16 171.089 27.91 170.609 27.41C170.129 26.9033 169.889 26.2067 169.889 25.32V19.59H168.849C168.715 19.59 168.599 19.5467 168.499 19.46C168.405 19.3733 168.359 19.2433 168.359 19.07V18.09L170.009 17.82L170.529 15.02C170.555 14.8867 170.615 14.7833 170.709 14.71C170.809 14.6367 170.932 14.6 171.079 14.6H172.359V17.83H175.059V19.59H172.359V25.15C172.359 25.47 172.439 25.72 172.599 25.9C172.759 26.08 172.972 26.17 173.239 26.17C173.392 26.17 173.519 26.1533 173.619 26.12C173.725 26.08 173.815 26.04 173.889 26C173.969 25.96 174.039 25.9233 174.099 25.89C174.159 25.85 174.219 25.83 174.279 25.83C174.352 25.83 174.412 25.85 174.459 25.89C174.505 25.9233 174.555 25.9767 174.609 26.05L175.349 27.25C174.989 27.55 174.575 27.7767 174.109 27.93C173.642 28.0833 173.159 28.16 172.659 28.16ZM188.78 16.17C188.707 16.3167 188.62 16.42 188.52 16.48C188.427 16.54 188.314 16.57 188.18 16.57C188.047 16.57 187.897 16.52 187.73 16.42C187.564 16.3133 187.367 16.1967 187.14 16.07C186.914 15.9433 186.647 15.83 186.34 15.73C186.04 15.6233 185.684 15.57 185.27 15.57C184.897 15.57 184.57 15.6167 184.29 15.71C184.017 15.7967 183.784 15.92 183.59 16.08C183.404 16.24 183.264 16.4333 183.17 16.66C183.077 16.88 183.03 17.1233 183.03 17.39C183.03 17.73 183.124 18.0133 183.31 18.24C183.504 18.4667 183.757 18.66 184.07 18.82C184.384 18.98 184.74 19.1233 185.14 19.25C185.54 19.3767 185.947 19.5133 186.36 19.66C186.78 19.8 187.19 19.9667 187.59 20.16C187.99 20.3467 188.347 20.5867 188.66 20.88C188.974 21.1667 189.224 21.52 189.41 21.94C189.604 22.36 189.7 22.87 189.7 23.47C189.7 24.1233 189.587 24.7367 189.36 25.31C189.14 25.8767 188.814 26.3733 188.38 26.8C187.954 27.22 187.43 27.5533 186.81 27.8C186.19 28.04 185.48 28.16 184.68 28.16C184.22 28.16 183.767 28.1133 183.32 28.02C182.874 27.9333 182.444 27.8067 182.03 27.64C181.624 27.4733 181.24 27.2733 180.88 27.04C180.527 26.8067 180.21 26.5467 179.93 26.26L180.71 24.97C180.784 24.8767 180.87 24.8 180.97 24.74C181.077 24.6733 181.194 24.64 181.32 24.64C181.487 24.64 181.667 24.71 181.86 24.85C182.054 24.9833 182.28 25.1333 182.54 25.3C182.807 25.4667 183.117 25.62 183.47 25.76C183.83 25.8933 184.26 25.96 184.76 25.96C185.527 25.96 186.12 25.78 186.54 25.42C186.96 25.0533 187.17 24.53 187.17 23.85C187.17 23.47 187.074 23.16 186.88 22.92C186.694 22.68 186.444 22.48 186.13 22.32C185.817 22.1533 185.46 22.0133 185.06 21.9C184.66 21.7867 184.254 21.6633 183.84 21.53C183.427 21.3967 183.02 21.2367 182.62 21.05C182.22 20.8633 181.864 20.62 181.55 20.32C181.237 20.02 180.984 19.6467 180.79 19.2C180.604 18.7467 180.51 18.19 180.51 17.53C180.51 17.0033 180.614 16.49 180.82 15.99C181.034 15.49 181.34 15.0467 181.74 14.66C182.147 14.2733 182.644 13.9633 183.23 13.73C183.817 13.4967 184.487 13.38 185.24 13.38C186.094 13.38 186.88 13.5133 187.6 13.78C188.32 14.0467 188.934 14.42 189.44 14.9L188.78 16.17ZM194.983 28.16C194.096 28.16 193.413 27.91 192.933 27.41C192.453 26.9033 192.213 26.2067 192.213 25.32V19.59H191.173C191.04 19.59 190.923 19.5467 190.823 19.46C190.73 19.3733 190.683 19.2433 190.683 19.07V18.09L192.333 17.82L192.853 15.02C192.88 14.8867 192.94 14.7833 193.033 14.71C193.133 14.6367 193.256 14.6 193.403 14.6H194.683V17.83H197.383V19.59H194.683V25.15C194.683 25.47 194.763 25.72 194.923 25.9C195.083 26.08 195.296 26.17 195.563 26.17C195.716 26.17 195.843 26.1533 195.943 26.12C196.05 26.08 196.14 26.04 196.213 26C196.293 25.96 196.363 25.9233 196.423 25.89C196.483 25.85 196.543 25.83 196.603 25.83C196.676 25.83 196.736 25.85 196.783 25.89C196.83 25.9233 196.88 25.9767 196.933 26.05L197.673 27.25C197.313 27.55 196.9 27.7767 196.433 27.93C195.966 28.0833 195.483 28.16 194.983 28.16ZM199.347 28V17.74H200.797C201.051 17.74 201.227 17.7867 201.327 17.88C201.427 17.9733 201.494 18.1333 201.527 18.36L201.677 19.6C202.044 18.9667 202.474 18.4667 202.967 18.1C203.461 17.7333 204.014 17.55 204.627 17.55C205.134 17.55 205.554 17.6667 205.887 17.9L205.567 19.75C205.547 19.87 205.504 19.9567 205.437 20.01C205.371 20.0567 205.281 20.08 205.167 20.08C205.067 20.08 204.931 20.0567 204.757 20.01C204.584 19.9633 204.354 19.94 204.067 19.94C203.554 19.94 203.114 20.0833 202.747 20.37C202.381 20.65 202.071 21.0633 201.817 21.61V28H199.347ZM215.258 28H214.148C213.915 28 213.732 27.9667 213.598 27.9C213.465 27.8267 213.365 27.6833 213.298 27.47L213.078 26.74C212.818 26.9733 212.562 27.18 212.308 27.36C212.062 27.5333 211.805 27.68 211.538 27.8C211.272 27.92 210.988 28.01 210.688 28.07C210.388 28.13 210.055 28.16 209.688 28.16C209.255 28.16 208.855 28.1033 208.488 27.99C208.122 27.87 207.805 27.6933 207.538 27.46C207.278 27.2267 207.075 26.9367 206.928 26.59C206.782 26.2433 206.708 25.84 206.708 25.38C206.708 24.9933 206.808 24.6133 207.008 24.24C207.215 23.86 207.555 23.52 208.028 23.22C208.502 22.9133 209.132 22.66 209.918 22.46C210.705 22.26 211.682 22.1467 212.848 22.12V21.52C212.848 20.8333 212.702 20.3267 212.408 20C212.122 19.6667 211.702 19.5 211.148 19.5C210.748 19.5 210.415 19.5467 210.148 19.64C209.882 19.7333 209.648 19.84 209.448 19.96C209.255 20.0733 209.075 20.1767 208.908 20.27C208.742 20.3633 208.558 20.41 208.358 20.41C208.192 20.41 208.048 20.3667 207.928 20.28C207.808 20.1933 207.712 20.0867 207.638 19.96L207.188 19.17C208.368 18.09 209.792 17.55 211.458 17.55C212.058 17.55 212.592 17.65 213.058 17.85C213.532 18.0433 213.932 18.3167 214.258 18.67C214.585 19.0167 214.832 19.4333 214.998 19.92C215.172 20.4067 215.258 20.94 215.258 21.52V28ZM210.458 26.46C210.712 26.46 210.945 26.4367 211.158 26.39C211.372 26.3433 211.572 26.2733 211.758 26.18C211.952 26.0867 212.135 25.9733 212.308 25.84C212.488 25.7 212.668 25.5367 212.848 25.35V23.62C212.128 23.6533 211.525 23.7167 211.038 23.81C210.558 23.8967 210.172 24.01 209.878 24.15C209.585 24.29 209.375 24.4533 209.248 24.64C209.128 24.8267 209.068 25.03 209.068 25.25C209.068 25.6833 209.195 25.9933 209.448 26.18C209.708 26.3667 210.045 26.46 210.458 26.46ZM221.057 28.16C220.171 28.16 219.487 27.91 219.007 27.41C218.527 26.9033 218.287 26.2067 218.287 25.32V19.59H217.247C217.114 19.59 216.997 19.5467 216.897 19.46C216.804 19.3733 216.757 19.2433 216.757 19.07V18.09L218.407 17.82L218.927 15.02C218.954 14.8867 219.014 14.7833 219.107 14.71C219.207 14.6367 219.331 14.6 219.477 14.6H220.757V17.83H223.457V19.59H220.757V25.15C220.757 25.47 220.837 25.72 220.997 25.9C221.157 26.08 221.371 26.17 221.637 26.17C221.791 26.17 221.917 26.1533 222.017 26.12C222.124 26.08 222.214 26.04 222.287 26C222.367 25.96 222.437 25.9233 222.497 25.89C222.557 25.85 222.617 25.83 222.677 25.83C222.751 25.83 222.811 25.85 222.857 25.89C222.904 25.9233 222.954 25.9767 223.007 26.05L223.747 27.25C223.387 27.55 222.974 27.7767 222.507 27.93C222.041 28.0833 221.557 28.16 221.057 28.16ZM229.662 17.58C230.308 17.58 230.902 17.6833 231.442 17.89C231.988 18.0967 232.458 18.4 232.852 18.8C233.245 19.1933 233.552 19.68 233.772 20.26C233.992 20.8333 234.102 21.49 234.102 22.23C234.102 22.4167 234.092 22.5733 234.072 22.7C234.058 22.82 234.028 22.9167 233.982 22.99C233.942 23.0567 233.885 23.1067 233.812 23.14C233.738 23.1667 233.645 23.18 233.532 23.18H227.192C227.265 24.2333 227.548 25.0067 228.042 25.5C228.535 25.9933 229.188 26.24 230.002 26.24C230.402 26.24 230.745 26.1933 231.032 26.1C231.325 26.0067 231.578 25.9033 231.792 25.79C232.012 25.6767 232.202 25.5733 232.362 25.48C232.528 25.3867 232.688 25.34 232.842 25.34C232.942 25.34 233.028 25.36 233.102 25.4C233.175 25.44 233.238 25.4967 233.292 25.57L234.012 26.47C233.738 26.79 233.432 27.06 233.092 27.28C232.752 27.4933 232.395 27.6667 232.022 27.8C231.655 27.9267 231.278 28.0167 230.892 28.07C230.512 28.1233 230.142 28.15 229.782 28.15C229.068 28.15 228.405 28.0333 227.792 27.8C227.178 27.56 226.645 27.21 226.192 26.75C225.738 26.2833 225.382 25.71 225.122 25.03C224.862 24.3433 224.732 23.55 224.732 22.65C224.732 21.95 224.845 21.2933 225.072 20.68C225.298 20.06 225.622 19.5233 226.042 19.07C226.468 18.61 226.985 18.2467 227.592 17.98C228.205 17.7133 228.895 17.58 229.662 17.58ZM229.712 19.35C228.992 19.35 228.428 19.5533 228.022 19.96C227.615 20.3667 227.355 20.9433 227.242 21.69H231.882C231.882 21.37 231.838 21.07 231.752 20.79C231.665 20.5033 231.532 20.2533 231.352 20.04C231.172 19.8267 230.945 19.66 230.672 19.54C230.398 19.4133 230.078 19.35 229.712 19.35ZM239.655 17.56C240.095 17.56 240.508 17.6067 240.895 17.7C241.282 17.7867 241.635 17.9167 241.955 18.09H244.905V19.01C244.905 19.1633 244.865 19.2833 244.785 19.37C244.705 19.4567 244.568 19.5167 244.375 19.55L243.455 19.72C243.522 19.8933 243.572 20.0767 243.605 20.27C243.645 20.4633 243.665 20.6667 243.665 20.88C243.665 21.3867 243.562 21.8467 243.355 22.26C243.155 22.6667 242.875 23.0133 242.515 23.3C242.162 23.5867 241.738 23.81 241.245 23.97C240.758 24.1233 240.228 24.2 239.655 24.2C239.268 24.2 238.892 24.1633 238.525 24.09C238.205 24.2833 238.045 24.5 238.045 24.74C238.045 24.9467 238.138 25.1 238.325 25.2C238.518 25.2933 238.768 25.36 239.075 25.4C239.388 25.44 239.742 25.4667 240.135 25.48C240.528 25.4867 240.932 25.5067 241.345 25.54C241.758 25.5733 242.162 25.6333 242.555 25.72C242.948 25.8 243.298 25.93 243.605 26.11C243.918 26.29 244.168 26.5367 244.355 26.85C244.548 27.1567 244.645 27.5533 244.645 28.04C244.645 28.4933 244.532 28.9333 244.305 29.36C244.085 29.7867 243.762 30.1667 243.335 30.5C242.915 30.8333 242.398 31.1 241.785 31.3C241.172 31.5067 240.472 31.61 239.685 31.61C238.905 31.61 238.228 31.5333 237.655 31.38C237.082 31.2333 236.605 31.0333 236.225 30.78C235.852 30.5333 235.572 30.2467 235.385 29.92C235.198 29.5933 235.105 29.2533 235.105 28.9C235.105 28.42 235.252 28.0167 235.545 27.69C235.838 27.3633 236.245 27.1033 236.765 26.91C236.512 26.77 236.308 26.5833 236.155 26.35C236.002 26.1167 235.925 25.8133 235.925 25.44C235.925 25.2867 235.952 25.13 236.005 24.97C236.058 24.8033 236.138 24.64 236.245 24.48C236.358 24.32 236.498 24.17 236.665 24.03C236.832 23.8833 237.028 23.7533 237.255 23.64C236.735 23.36 236.325 22.9867 236.025 22.52C235.732 22.0533 235.585 21.5067 235.585 20.88C235.585 20.3733 235.685 19.9167 235.885 19.51C236.092 19.0967 236.375 18.7467 236.735 18.46C237.102 18.1667 237.532 17.9433 238.025 17.79C238.525 17.6367 239.068 17.56 239.655 17.56ZM242.365 28.46C242.365 28.26 242.305 28.0967 242.185 27.97C242.065 27.8433 241.902 27.7467 241.695 27.68C241.488 27.6067 241.245 27.5533 240.965 27.52C240.692 27.4867 240.398 27.4633 240.085 27.45C239.778 27.43 239.458 27.4133 239.125 27.4C238.798 27.38 238.482 27.35 238.175 27.31C237.895 27.4633 237.668 27.6467 237.495 27.86C237.328 28.0667 237.245 28.3067 237.245 28.58C237.245 28.76 237.288 28.9267 237.375 29.08C237.468 29.24 237.612 29.3767 237.805 29.49C238.005 29.6033 238.262 29.69 238.575 29.75C238.888 29.8167 239.272 29.85 239.725 29.85C240.185 29.85 240.582 29.8133 240.915 29.74C241.248 29.6733 241.522 29.5767 241.735 29.45C241.955 29.33 242.115 29.1833 242.215 29.01C242.315 28.8433 242.365 28.66 242.365 28.46ZM239.655 22.62C239.962 22.62 240.228 22.58 240.455 22.5C240.682 22.4133 240.868 22.2967 241.015 22.15C241.168 22.0033 241.282 21.8267 241.355 21.62C241.435 21.4133 241.475 21.1867 241.475 20.94C241.475 20.4333 241.322 20.0333 241.015 19.74C240.715 19.44 240.262 19.29 239.655 19.29C239.048 19.29 238.592 19.44 238.285 19.74C237.985 20.0333 237.835 20.4333 237.835 20.94C237.835 21.18 237.872 21.4033 237.945 21.61C238.025 21.8167 238.138 21.9967 238.285 22.15C238.438 22.2967 238.628 22.4133 238.855 22.5C239.088 22.58 239.355 22.62 239.655 22.62ZM250.097 30.82C250.023 30.9933 249.927 31.1233 249.807 31.21C249.693 31.3033 249.517 31.35 249.277 31.35H247.437L249.357 27.24L245.207 17.74H247.367C247.567 17.74 247.72 17.7867 247.827 17.88C247.933 17.9733 248.013 18.08 248.067 18.2L250.257 23.52C250.33 23.6933 250.393 23.8733 250.447 24.06C250.5 24.2467 250.547 24.4333 250.587 24.62C250.64 24.4267 250.697 24.24 250.757 24.06C250.823 23.88 250.893 23.6967 250.967 23.51L253.027 18.2C253.08 18.0667 253.167 17.9567 253.287 17.87C253.413 17.7833 253.553 17.74 253.707 17.74H255.687L250.097 30.82Z" fill="white"/>
</g>
<defs>
<clipPath id="clip0_1473_4602">
<rect width="256" height="40" fill="white"/>
</clipPath>
<clipPath id="clip1_1473_4602">
<rect width="40" height="40" fill="white"/>
</clipPath>
</defs>
</svg>
