<svg width="231" height="40" viewBox="0 0 231 40" fill="none" xmlns="http://www.w3.org/2000/svg">
<g clip-path="url(#clip0_1473_4638)">
<path d="M30.7812 18.835C30.3498 18.835 30 19.1848 30 19.6162V19.7334C30 20.1649 30.3498 20.5147 30.7812 20.5147C31.2127 20.5147 31.5625 20.1648 31.5625 19.7334V19.6162C31.5625 19.1847 31.2127 18.835 30.7812 18.835Z" fill="#7772F1"/>
<path d="M35.7812 14.6777V6.72559C35.7812 5.13168 34.4845 3.83496 32.8906 3.83496C32.2216 3.83496 31.6053 4.0641 31.1149 4.44715L22.7551 7.57848C22.351 7.7298 22.1462 8.18004 22.2975 8.5841C22.415 8.89793 22.7128 9.09152 23.0292 9.09152C23.1203 9.09152 23.2129 9.07551 23.3031 9.0416L30.0073 6.53035C30.003 6.59488 29.9999 6.6598 29.9999 6.72543V15.7879C29.9999 16.2193 30.3497 16.5692 30.7812 16.5692C31.2127 16.5692 31.5624 16.2193 31.5624 15.7879V6.72543C31.5624 5.99309 32.1582 5.3973 32.8905 5.3973C33.6229 5.3973 34.2187 5.99309 34.2187 6.72543V32.5067C34.2187 33.239 33.6229 33.8348 32.8905 33.8348C32.1582 33.8348 31.5624 33.239 31.5624 32.5067V23.0536C31.5624 22.6221 31.2127 22.2723 30.7812 22.2723C30.3497 22.2723 29.9999 22.6221 29.9999 23.0536V32.5067C29.9999 32.5723 30.0029 32.6372 30.0073 32.7018L10.3125 25.3246V13.9079L18.2425 10.9375C18.6466 10.7861 18.8514 10.3359 18.7001 9.93184C18.5487 9.52777 18.0984 9.32254 17.6944 9.47434L9.38977 12.585H4.60938C2.06773 12.585 0 14.6528 0 17.1944V22.0382C0 24.5299 1.98766 26.5647 4.46055 26.6438L7.90297 35.6631C8.01852 35.9658 8.30891 36.1658 8.63289 36.1658H13.1641C13.4212 36.1658 13.6618 36.0394 13.8076 35.8277C13.9534 35.616 13.9857 35.3461 13.8941 35.1061L10.8786 27.2053L31.115 34.7854C31.6054 35.1685 32.2216 35.3976 32.8907 35.3976C34.4846 35.3976 35.7813 34.1009 35.7813 32.507V24.5548C38.1684 24.1785 40 22.1075 40 19.6162C40 17.125 38.1684 15.0539 35.7812 14.6777ZM4.60938 25.085C2.9293 25.085 1.5625 23.7182 1.5625 22.0381V17.1943C1.5625 15.5143 2.9293 14.1475 4.60938 14.1475H8.75V25.085H5H4.60938ZM12.0297 34.6032H9.17086V34.6032L6.13445 26.6475H8.99328L12.0297 34.6032ZM35.7812 22.963V16.2693C37.3014 16.6241 38.4375 17.9895 38.4375 19.6161C38.4375 21.2428 37.3014 22.6082 35.7812 22.963Z" fill="#7772F1"/>
<path d="M21.0709 8.69773C20.9256 8.55242 20.724 8.46875 20.5186 8.46875C20.3131 8.46875 20.1115 8.55234 19.9662 8.69773C19.8209 8.84297 19.7373 9.04453 19.7373 9.25C19.7373 9.45555 19.8209 9.65711 19.9662 9.80234C20.1115 9.94766 20.3131 10.0312 20.5186 10.0312C20.724 10.0312 20.9256 9.94773 21.0709 9.80234C21.2162 9.65711 21.2998 9.45555 21.2998 9.25C21.2998 9.04453 21.2162 8.84297 21.0709 8.69773Z" fill="#7772F1"/>
<path d="M5.70859 17.1625C5.56328 17.0164 5.36172 16.9336 5.15625 16.9336C4.95078 16.9336 4.74922 17.0164 4.60391 17.1625C4.45859 17.3078 4.375 17.5094 4.375 17.7148C4.375 17.9203 4.45859 18.1211 4.60391 18.2672C4.74922 18.4125 4.95078 18.4961 5.15625 18.4961C5.36172 18.4961 5.56328 18.4125 5.70859 18.2672C5.85391 18.1219 5.9375 17.9203 5.9375 17.7148C5.9375 17.5086 5.85391 17.3078 5.70859 17.1625Z" fill="#7772F1"/>
<path d="M6.5625 21.4131H4.0625C3.63102 21.4131 3.28125 21.7629 3.28125 22.1943C3.28125 22.6257 3.63102 22.9756 4.0625 22.9756H6.5625C6.99398 22.9756 7.34375 22.6258 7.34375 22.1943C7.34375 21.7629 6.99398 21.4131 6.5625 21.4131Z" fill="#7772F1"/>
<path d="M71.4 24.59C71.5467 24.59 71.6733 24.6467 71.78 24.76L72.84 25.91C72.2533 26.6367 71.53 27.1933 70.67 27.58C69.8167 27.9667 68.79 28.16 67.59 28.16C66.5167 28.16 65.55 27.9767 64.69 27.61C63.8367 27.2433 63.1067 26.7333 62.5 26.08C61.8933 25.4267 61.4267 24.6467 61.1 23.74C60.78 22.8333 60.62 21.8433 60.62 20.77C60.62 19.6833 60.8 18.69 61.16 17.79C61.52 16.8833 62.0267 16.1033 62.68 15.45C63.3333 14.7967 64.1133 14.29 65.02 13.93C65.9333 13.5633 66.94 13.38 68.04 13.38C69.1133 13.38 70.05 13.5533 70.85 13.9C71.6567 14.24 72.3467 14.6933 72.92 15.26L72.02 16.51C71.9667 16.59 71.8967 16.66 71.81 16.72C71.73 16.78 71.6167 16.81 71.47 16.81C71.3167 16.81 71.16 16.75 71 16.63C70.84 16.51 70.6367 16.38 70.39 16.24C70.1433 16.1 69.83 15.97 69.45 15.85C69.0767 15.73 68.6 15.67 68.02 15.67C67.34 15.67 66.7133 15.79 66.14 16.03C65.5733 16.2633 65.0833 16.6 64.67 17.04C64.2633 17.48 63.9433 18.0167 63.71 18.65C63.4833 19.2767 63.37 19.9833 63.37 20.77C63.37 21.5833 63.4833 22.3067 63.71 22.94C63.9433 23.5733 64.2567 24.1067 64.65 24.54C65.0433 24.9733 65.5067 25.3067 66.04 25.54C66.5733 25.7667 67.1467 25.88 67.76 25.88C68.1267 25.88 68.4567 25.86 68.75 25.82C69.05 25.78 69.3233 25.7167 69.57 25.63C69.8233 25.5433 70.06 25.4333 70.28 25.3C70.5067 25.16 70.73 24.99 70.95 24.79C71.0167 24.73 71.0867 24.6833 71.16 24.65C71.2333 24.61 71.3133 24.59 71.4 24.59ZM79.118 17.58C79.8846 17.58 80.578 17.7033 81.198 17.95C81.8246 18.1967 82.358 18.5467 82.798 19C83.238 19.4533 83.578 20.0067 83.818 20.66C84.058 21.3133 84.178 22.0433 84.178 22.85C84.178 23.6633 84.058 24.3967 83.818 25.05C83.578 25.7033 83.238 26.26 82.798 26.72C82.358 27.18 81.8246 27.5333 81.198 27.78C80.578 28.0267 79.8846 28.15 79.118 28.15C78.3513 28.15 77.6546 28.0267 77.028 27.78C76.4013 27.5333 75.8646 27.18 75.418 26.72C74.978 26.26 74.6346 25.7033 74.388 25.05C74.148 24.3967 74.028 23.6633 74.028 22.85C74.028 22.0433 74.148 21.3133 74.388 20.66C74.6346 20.0067 74.978 19.4533 75.418 19C75.8646 18.5467 76.4013 18.1967 77.028 17.95C77.6546 17.7033 78.3513 17.58 79.118 17.58ZM79.118 26.25C79.9713 26.25 80.6013 25.9633 81.008 25.39C81.4213 24.8167 81.628 23.9767 81.628 22.87C81.628 21.7633 81.4213 20.92 81.008 20.34C80.6013 19.76 79.9713 19.47 79.118 19.47C78.2513 19.47 77.6113 19.7633 77.198 20.35C76.7846 20.93 76.578 21.77 76.578 22.87C76.578 23.97 76.7846 24.81 77.198 25.39C77.6113 25.9633 78.2513 26.25 79.118 26.25ZM86.1052 28V17.74H87.6152C87.9352 17.74 88.1452 17.89 88.2452 18.19L88.4152 19C88.6218 18.7867 88.8385 18.5933 89.0652 18.42C89.2985 18.2467 89.5418 18.0967 89.7952 17.97C90.0552 17.8433 90.3318 17.7467 90.6252 17.68C90.9185 17.6133 91.2385 17.58 91.5852 17.58C92.1452 17.58 92.6418 17.6767 93.0752 17.87C93.5085 18.0567 93.8685 18.3233 94.1552 18.67C94.4485 19.01 94.6685 19.42 94.8152 19.9C94.9685 20.3733 95.0452 20.8967 95.0452 21.47V28H92.5752V21.47C92.5752 20.8433 92.4285 20.36 92.1352 20.02C91.8485 19.6733 91.4152 19.5 90.8352 19.5C90.4085 19.5 90.0085 19.5967 89.6352 19.79C89.2618 19.9833 88.9085 20.2467 88.5752 20.58V28H86.1052ZM100.842 28.16C99.9557 28.16 99.2723 27.91 98.7923 27.41C98.3123 26.9033 98.0723 26.2067 98.0723 25.32V19.59H97.0323C96.899 19.59 96.7823 19.5467 96.6823 19.46C96.589 19.3733 96.5423 19.2433 96.5423 19.07V18.09L98.1923 17.82L98.7123 15.02C98.739 14.8867 98.799 14.7833 98.8923 14.71C98.9923 14.6367 99.1157 14.6 99.2623 14.6H100.542V17.83H103.242V19.59H100.542V25.15C100.542 25.47 100.622 25.72 100.782 25.9C100.942 26.08 101.156 26.17 101.422 26.17C101.576 26.17 101.702 26.1533 101.802 26.12C101.909 26.08 101.999 26.04 102.072 26C102.152 25.96 102.222 25.9233 102.282 25.89C102.342 25.85 102.402 25.83 102.462 25.83C102.536 25.83 102.596 25.85 102.642 25.89C102.689 25.9233 102.739 25.9767 102.792 26.05L103.532 27.25C103.172 27.55 102.759 27.7767 102.292 27.93C101.826 28.0833 101.342 28.16 100.842 28.16ZM109.447 17.58C110.093 17.58 110.687 17.6833 111.227 17.89C111.773 18.0967 112.243 18.4 112.637 18.8C113.03 19.1933 113.337 19.68 113.557 20.26C113.777 20.8333 113.887 21.49 113.887 22.23C113.887 22.4167 113.877 22.5733 113.857 22.7C113.843 22.82 113.813 22.9167 113.767 22.99C113.727 23.0567 113.67 23.1067 113.597 23.14C113.523 23.1667 113.43 23.18 113.317 23.18H106.977C107.05 24.2333 107.333 25.0067 107.827 25.5C108.32 25.9933 108.973 26.24 109.787 26.24C110.187 26.24 110.53 26.1933 110.817 26.1C111.11 26.0067 111.363 25.9033 111.577 25.79C111.797 25.6767 111.987 25.5733 112.147 25.48C112.313 25.3867 112.473 25.34 112.627 25.34C112.727 25.34 112.813 25.36 112.887 25.4C112.96 25.44 113.023 25.4967 113.077 25.57L113.797 26.47C113.523 26.79 113.217 27.06 112.877 27.28C112.537 27.4933 112.18 27.6667 111.807 27.8C111.44 27.9267 111.063 28.0167 110.677 28.07C110.297 28.1233 109.927 28.15 109.567 28.15C108.853 28.15 108.19 28.0333 107.577 27.8C106.963 27.56 106.43 27.21 105.977 26.75C105.523 26.2833 105.167 25.71 104.907 25.03C104.647 24.3433 104.517 23.55 104.517 22.65C104.517 21.95 104.63 21.2933 104.857 20.68C105.083 20.06 105.407 19.5233 105.827 19.07C106.253 18.61 106.77 18.2467 107.377 17.98C107.99 17.7133 108.68 17.58 109.447 17.58ZM109.497 19.35C108.777 19.35 108.213 19.5533 107.807 19.96C107.4 20.3667 107.14 20.9433 107.027 21.69H111.667C111.667 21.37 111.623 21.07 111.537 20.79C111.45 20.5033 111.317 20.2533 111.137 20.04C110.957 19.8267 110.73 19.66 110.457 19.54C110.183 19.4133 109.863 19.35 109.497 19.35ZM115.89 28V17.74H117.4C117.72 17.74 117.93 17.89 118.03 18.19L118.2 19C118.407 18.7867 118.624 18.5933 118.85 18.42C119.084 18.2467 119.327 18.0967 119.58 17.97C119.84 17.8433 120.117 17.7467 120.41 17.68C120.704 17.6133 121.024 17.58 121.37 17.58C121.93 17.58 122.427 17.6767 122.86 17.87C123.294 18.0567 123.654 18.3233 123.94 18.67C124.234 19.01 124.454 19.42 124.6 19.9C124.754 20.3733 124.83 20.8967 124.83 21.47V28H122.36V21.47C122.36 20.8433 122.214 20.36 121.92 20.02C121.634 19.6733 121.2 19.5 120.62 19.5C120.194 19.5 119.794 19.5967 119.42 19.79C119.047 19.9833 118.694 20.2467 118.36 20.58V28H115.89ZM130.628 28.16C129.741 28.16 129.058 27.91 128.577 27.41C128.098 26.9033 127.858 26.2067 127.858 25.32V19.59H126.818C126.684 19.59 126.568 19.5467 126.468 19.46C126.374 19.3733 126.328 19.2433 126.328 19.07V18.09L127.978 17.82L128.498 15.02C128.524 14.8867 128.584 14.7833 128.678 14.71C128.778 14.6367 128.901 14.6 129.048 14.6H130.328V17.83H133.028V19.59H130.328V25.15C130.328 25.47 130.408 25.72 130.568 25.9C130.728 26.08 130.941 26.17 131.208 26.17C131.361 26.17 131.488 26.1533 131.587 26.12C131.694 26.08 131.784 26.04 131.858 26C131.938 25.96 132.008 25.9233 132.068 25.89C132.128 25.85 132.188 25.83 132.248 25.83C132.321 25.83 132.381 25.85 132.428 25.89C132.474 25.9233 132.524 25.9767 132.578 26.05L133.318 27.25C132.958 27.55 132.544 27.7767 132.078 27.93C131.611 28.0833 131.128 28.16 130.628 28.16ZM146.259 22C146.372 22.2133 146.476 22.4367 146.569 22.67C146.669 22.8967 146.766 23.1267 146.859 23.36C146.952 23.12 147.049 22.8833 147.149 22.65C147.249 22.4167 147.356 22.1933 147.469 21.98L151.749 13.97C151.802 13.87 151.856 13.79 151.909 13.73C151.969 13.67 152.032 13.6267 152.099 13.6C152.172 13.5733 152.252 13.5567 152.339 13.55C152.426 13.5433 152.529 13.54 152.649 13.54H154.679V28H152.309V18.66C152.309 18.4867 152.312 18.2967 152.319 18.09C152.332 17.8833 152.349 17.6733 152.369 17.46L147.999 25.66C147.899 25.8467 147.769 25.9933 147.609 26.1C147.449 26.2 147.262 26.25 147.049 26.25H146.679C146.466 26.25 146.279 26.2 146.119 26.1C145.959 25.9933 145.829 25.8467 145.729 25.66L141.299 17.43C141.326 17.65 141.342 17.8667 141.349 18.08C141.362 18.2867 141.369 18.48 141.369 18.66V28H138.999V13.54H141.029C141.149 13.54 141.252 13.5433 141.339 13.55C141.426 13.5567 141.502 13.5733 141.569 13.6C141.642 13.6267 141.709 13.67 141.769 13.73C141.829 13.79 141.886 13.87 141.939 13.97L146.259 22ZM165.493 28H164.383C164.149 28 163.966 27.9667 163.833 27.9C163.699 27.8267 163.599 27.6833 163.533 27.47L163.313 26.74C163.053 26.9733 162.796 27.18 162.543 27.36C162.296 27.5333 162.039 27.68 161.773 27.8C161.506 27.92 161.223 28.01 160.923 28.07C160.623 28.13 160.289 28.16 159.923 28.16C159.489 28.16 159.089 28.1033 158.723 27.99C158.356 27.87 158.039 27.6933 157.773 27.46C157.513 27.2267 157.309 26.9367 157.163 26.59C157.016 26.2433 156.943 25.84 156.943 25.38C156.943 24.9933 157.043 24.6133 157.243 24.24C157.449 23.86 157.789 23.52 158.263 23.22C158.736 22.9133 159.366 22.66 160.153 22.46C160.939 22.26 161.916 22.1467 163.083 22.12V21.52C163.083 20.8333 162.936 20.3267 162.643 20C162.356 19.6667 161.936 19.5 161.383 19.5C160.983 19.5 160.649 19.5467 160.383 19.64C160.116 19.7333 159.883 19.84 159.683 19.96C159.489 20.0733 159.309 20.1767 159.143 20.27C158.976 20.3633 158.793 20.41 158.593 20.41C158.426 20.41 158.283 20.3667 158.163 20.28C158.043 20.1933 157.946 20.0867 157.873 19.96L157.423 19.17C158.603 18.09 160.026 17.55 161.693 17.55C162.293 17.55 162.826 17.65 163.293 17.85C163.766 18.0433 164.166 18.3167 164.493 18.67C164.819 19.0167 165.066 19.4333 165.233 19.92C165.406 20.4067 165.493 20.94 165.493 21.52V28ZM160.693 26.46C160.946 26.46 161.179 26.4367 161.393 26.39C161.606 26.3433 161.806 26.2733 161.993 26.18C162.186 26.0867 162.369 25.9733 162.543 25.84C162.723 25.7 162.903 25.5367 163.083 25.35V23.62C162.363 23.6533 161.759 23.7167 161.273 23.81C160.793 23.8967 160.406 24.01 160.113 24.15C159.819 24.29 159.609 24.4533 159.483 24.64C159.363 24.8267 159.303 25.03 159.303 25.25C159.303 25.6833 159.429 25.9933 159.683 26.18C159.943 26.3667 160.279 26.46 160.693 26.46ZM167.922 28V17.74H169.372C169.625 17.74 169.802 17.7867 169.902 17.88C170.002 17.9733 170.068 18.1333 170.102 18.36L170.252 19.6C170.618 18.9667 171.048 18.4667 171.542 18.1C172.035 17.7333 172.588 17.55 173.202 17.55C173.708 17.55 174.128 17.6667 174.462 17.9L174.142 19.75C174.122 19.87 174.078 19.9567 174.012 20.01C173.945 20.0567 173.855 20.08 173.742 20.08C173.642 20.08 173.505 20.0567 173.332 20.01C173.158 19.9633 172.928 19.94 172.642 19.94C172.128 19.94 171.688 20.0833 171.322 20.37C170.955 20.65 170.645 21.0633 170.392 21.61V28H167.922ZM178.586 13.14V21.65H179.046C179.212 21.65 179.342 21.6267 179.436 21.58C179.529 21.5333 179.629 21.4467 179.736 21.32L182.286 18.17C182.399 18.0367 182.519 17.9333 182.646 17.86C182.772 17.78 182.939 17.74 183.146 17.74H185.406L182.216 21.55C182.102 21.69 181.986 21.82 181.866 21.94C181.746 22.0533 181.616 22.1533 181.476 22.24C181.616 22.34 181.739 22.4567 181.846 22.59C181.952 22.7233 182.059 22.8667 182.166 23.02L185.586 28H183.356C183.162 28 182.999 27.9667 182.866 27.9C182.732 27.8333 182.612 27.72 182.506 27.56L179.896 23.67C179.796 23.5167 179.696 23.4167 179.596 23.37C179.496 23.3233 179.346 23.3 179.146 23.3H178.586V28H176.116V13.14H178.586ZM190.755 17.58C191.402 17.58 191.995 17.6833 192.535 17.89C193.082 18.0967 193.552 18.4 193.945 18.8C194.339 19.1933 194.645 19.68 194.865 20.26C195.085 20.8333 195.195 21.49 195.195 22.23C195.195 22.4167 195.185 22.5733 195.165 22.7C195.152 22.82 195.122 22.9167 195.075 22.99C195.035 23.0567 194.979 23.1067 194.905 23.14C194.832 23.1667 194.739 23.18 194.625 23.18H188.285C188.359 24.2333 188.642 25.0067 189.135 25.5C189.629 25.9933 190.282 26.24 191.095 26.24C191.495 26.24 191.839 26.1933 192.125 26.1C192.419 26.0067 192.672 25.9033 192.885 25.79C193.105 25.6767 193.295 25.5733 193.455 25.48C193.622 25.3867 193.782 25.34 193.935 25.34C194.035 25.34 194.122 25.36 194.195 25.4C194.269 25.44 194.332 25.4967 194.385 25.57L195.105 26.47C194.832 26.79 194.525 27.06 194.185 27.28C193.845 27.4933 193.489 27.6667 193.115 27.8C192.749 27.9267 192.372 28.0167 191.985 28.07C191.605 28.1233 191.235 28.15 190.875 28.15C190.162 28.15 189.499 28.0333 188.885 27.8C188.272 27.56 187.739 27.21 187.285 26.75C186.832 26.2833 186.475 25.71 186.215 25.03C185.955 24.3433 185.825 23.55 185.825 22.65C185.825 21.95 185.939 21.2933 186.165 20.68C186.392 20.06 186.715 19.5233 187.135 19.07C187.562 18.61 188.079 18.2467 188.685 17.98C189.299 17.7133 189.989 17.58 190.755 17.58ZM190.805 19.35C190.085 19.35 189.522 19.5533 189.115 19.96C188.709 20.3667 188.449 20.9433 188.335 21.69H192.975C192.975 21.37 192.932 21.07 192.845 20.79C192.759 20.5033 192.625 20.2533 192.445 20.04C192.265 19.8267 192.039 19.66 191.765 19.54C191.492 19.4133 191.172 19.35 190.805 19.35ZM200.569 28.16C199.682 28.16 198.999 27.91 198.519 27.41C198.039 26.9033 197.799 26.2067 197.799 25.32V19.59H196.759C196.626 19.59 196.509 19.5467 196.409 19.46C196.316 19.3733 196.269 19.2433 196.269 19.07V18.09L197.919 17.82L198.439 15.02C198.466 14.8867 198.526 14.7833 198.619 14.71C198.719 14.6367 198.842 14.6 198.989 14.6H200.269V17.83H202.969V19.59H200.269V25.15C200.269 25.47 200.349 25.72 200.509 25.9C200.669 26.08 200.882 26.17 201.149 26.17C201.302 26.17 201.429 26.1533 201.529 26.12C201.636 26.08 201.726 26.04 201.799 26C201.879 25.96 201.949 25.9233 202.009 25.89C202.069 25.85 202.129 25.83 202.189 25.83C202.262 25.83 202.322 25.85 202.369 25.89C202.416 25.9233 202.466 25.9767 202.519 26.05L203.259 27.25C202.899 27.55 202.486 27.7767 202.019 27.93C201.552 28.0833 201.069 28.16 200.569 28.16ZM207.563 17.74V28H205.093V17.74H207.563ZM207.933 14.75C207.933 14.9633 207.89 15.1633 207.803 15.35C207.717 15.5367 207.6 15.7 207.453 15.84C207.313 15.98 207.147 16.0933 206.953 16.18C206.76 16.26 206.553 16.3 206.333 16.3C206.12 16.3 205.917 16.26 205.723 16.18C205.537 16.0933 205.373 15.98 205.233 15.84C205.093 15.7 204.98 15.5367 204.893 15.35C204.813 15.1633 204.773 14.9633 204.773 14.75C204.773 14.53 204.813 14.3233 204.893 14.13C204.98 13.9367 205.093 13.77 205.233 13.63C205.373 13.49 205.537 13.38 205.723 13.3C205.917 13.2133 206.12 13.17 206.333 13.17C206.553 13.17 206.76 13.2133 206.953 13.3C207.147 13.38 207.313 13.49 207.453 13.63C207.6 13.77 207.717 13.9367 207.803 14.13C207.89 14.3233 207.933 14.53 207.933 14.75ZM210.363 28V17.74H211.873C212.193 17.74 212.403 17.89 212.503 18.19L212.673 19C212.88 18.7867 213.096 18.5933 213.323 18.42C213.556 18.2467 213.8 18.0967 214.053 17.97C214.313 17.8433 214.59 17.7467 214.883 17.68C215.176 17.6133 215.496 17.58 215.843 17.58C216.403 17.58 216.9 17.6767 217.333 17.87C217.766 18.0567 218.126 18.3233 218.413 18.67C218.706 19.01 218.926 19.42 219.073 19.9C219.226 20.3733 219.303 20.8967 219.303 21.47V28H216.833V21.47C216.833 20.8433 216.686 20.36 216.393 20.02C216.106 19.6733 215.673 19.5 215.093 19.5C214.666 19.5 214.266 19.5967 213.893 19.79C213.52 19.9833 213.166 20.2467 212.833 20.58V28H210.363ZM225.28 17.56C225.72 17.56 226.133 17.6067 226.52 17.7C226.907 17.7867 227.26 17.9167 227.58 18.09H230.53V19.01C230.53 19.1633 230.49 19.2833 230.41 19.37C230.33 19.4567 230.193 19.5167 230 19.55L229.08 19.72C229.147 19.8933 229.197 20.0767 229.23 20.27C229.27 20.4633 229.29 20.6667 229.29 20.88C229.29 21.3867 229.187 21.8467 228.98 22.26C228.78 22.6667 228.5 23.0133 228.14 23.3C227.787 23.5867 227.363 23.81 226.87 23.97C226.383 24.1233 225.853 24.2 225.28 24.2C224.893 24.2 224.517 24.1633 224.15 24.09C223.83 24.2833 223.67 24.5 223.67 24.74C223.67 24.9467 223.763 25.1 223.95 25.2C224.143 25.2933 224.393 25.36 224.7 25.4C225.013 25.44 225.367 25.4667 225.76 25.48C226.153 25.4867 226.557 25.5067 226.97 25.54C227.383 25.5733 227.787 25.6333 228.18 25.72C228.573 25.8 228.923 25.93 229.23 26.11C229.543 26.29 229.793 26.5367 229.98 26.85C230.173 27.1567 230.27 27.5533 230.27 28.04C230.27 28.4933 230.157 28.9333 229.93 29.36C229.71 29.7867 229.387 30.1667 228.96 30.5C228.54 30.8333 228.023 31.1 227.41 31.3C226.797 31.5067 226.097 31.61 225.31 31.61C224.53 31.61 223.853 31.5333 223.28 31.38C222.707 31.2333 222.23 31.0333 221.85 30.78C221.477 30.5333 221.197 30.2467 221.01 29.92C220.823 29.5933 220.73 29.2533 220.73 28.9C220.73 28.42 220.877 28.0167 221.17 27.69C221.463 27.3633 221.87 27.1033 222.39 26.91C222.137 26.77 221.933 26.5833 221.78 26.35C221.627 26.1167 221.55 25.8133 221.55 25.44C221.55 25.2867 221.577 25.13 221.63 24.97C221.683 24.8033 221.763 24.64 221.87 24.48C221.983 24.32 222.123 24.17 222.29 24.03C222.457 23.8833 222.653 23.7533 222.88 23.64C222.36 23.36 221.95 22.9867 221.65 22.52C221.357 22.0533 221.21 21.5067 221.21 20.88C221.21 20.3733 221.31 19.9167 221.51 19.51C221.717 19.0967 222 18.7467 222.36 18.46C222.727 18.1667 223.157 17.9433 223.65 17.79C224.15 17.6367 224.693 17.56 225.28 17.56ZM227.99 28.46C227.99 28.26 227.93 28.0967 227.81 27.97C227.69 27.8433 227.527 27.7467 227.32 27.68C227.113 27.6067 226.87 27.5533 226.59 27.52C226.317 27.4867 226.023 27.4633 225.71 27.45C225.403 27.43 225.083 27.4133 224.75 27.4C224.423 27.38 224.107 27.35 223.8 27.31C223.52 27.4633 223.293 27.6467 223.12 27.86C222.953 28.0667 222.87 28.3067 222.87 28.58C222.87 28.76 222.913 28.9267 223 29.08C223.093 29.24 223.237 29.3767 223.43 29.49C223.63 29.6033 223.887 29.69 224.2 29.75C224.513 29.8167 224.897 29.85 225.35 29.85C225.81 29.85 226.207 29.8133 226.54 29.74C226.873 29.6733 227.147 29.5767 227.36 29.45C227.58 29.33 227.74 29.1833 227.84 29.01C227.94 28.8433 227.99 28.66 227.99 28.46ZM225.28 22.62C225.587 22.62 225.853 22.58 226.08 22.5C226.307 22.4133 226.493 22.2967 226.64 22.15C226.793 22.0033 226.907 21.8267 226.98 21.62C227.06 21.4133 227.1 21.1867 227.1 20.94C227.1 20.4333 226.947 20.0333 226.64 19.74C226.34 19.44 225.887 19.29 225.28 19.29C224.673 19.29 224.217 19.44 223.91 19.74C223.61 20.0333 223.46 20.4333 223.46 20.94C223.46 21.18 223.497 21.4033 223.57 21.61C223.65 21.8167 223.763 21.9967 223.91 22.15C224.063 22.2967 224.253 22.4133 224.48 22.5C224.713 22.58 224.98 22.62 225.28 22.62Z" fill="white"/>
</g>
<defs>
<clipPath id="clip0_1473_4638">
<rect width="231" height="40" fill="white"/>
</clipPath>
</defs>
</svg>
