<svg width="368" height="40" viewBox="0 0 368 40" fill="none" xmlns="http://www.w3.org/2000/svg">
<g clip-path="url(#clip0_1473_4620)">
<g clip-path="url(#clip1_1473_4620)">
<path d="M31.8023 29.4535C31.657 29.3082 31.4555 29.2246 31.25 29.2246C31.0445 29.2246 30.843 29.3082 30.6977 29.4535C30.5523 29.5988 30.4688 29.8004 30.4688 30.0059C30.4688 30.2113 30.5523 30.4129 30.6977 30.5582C30.843 30.7043 31.0445 30.7871 31.25 30.7871C31.4555 30.7871 31.657 30.7043 31.8023 30.5582C31.9477 30.4129 32.0312 30.2113 32.0312 30.0059C32.0312 29.8004 31.9477 29.5989 31.8023 29.4535Z" fill="#7772F1"/>
<path d="M36.875 0.000976562H3.125C1.40188 0.000976562 0 1.40285 0 3.12598V27.6637C0 29.3868 1.40188 30.7887 3.125 30.7887H15.3906V34.7104C13.0991 34.9336 11.3021 36.8705 11.3021 39.2196C11.3021 39.6511 11.6519 40.0009 12.0834 40.0009H27.9167C28.3482 40.0009 28.698 39.6511 28.698 39.2196C28.698 36.8174 26.8187 34.8468 24.4532 34.6984V30.7887H28.0991C28.5305 30.7887 28.8803 30.4389 28.8803 30.0075C28.8803 29.576 28.5305 29.2262 28.0991 29.2262H3.125C2.26344 29.2262 1.5625 28.5253 1.5625 27.6637V3.12598C1.5625 2.26441 2.26344 1.56348 3.125 1.56348H36.875C37.7366 1.56348 38.4375 2.26441 38.4375 3.12598V27.6637C38.4375 28.5253 37.7366 29.2262 36.875 29.2262H33.9584C33.5269 29.2262 33.1771 29.576 33.1771 30.0075C33.1771 30.4389 33.5269 30.7887 33.9584 30.7887H36.875C38.5981 30.7887 40 29.3868 40 27.6637V3.12598C40 1.40277 38.5981 0.000976562 36.875 0.000976562ZM16.9531 30.7887H22.8906V34.6885H16.9531V30.7887ZM24.1666 36.251C25.5334 36.251 26.6873 37.1793 27.0312 38.4385H12.9688C13.3126 37.1793 14.4666 36.251 15.8333 36.251H24.1666Z" fill="#7772F1"/>
<path d="M20.4742 26.9545C20.3289 26.8092 20.1273 26.7256 19.9219 26.7256C19.7164 26.7256 19.5148 26.8092 19.3695 26.9545C19.2242 27.0998 19.1406 27.3014 19.1406 27.5068C19.1406 27.7131 19.2242 27.9139 19.3695 28.0592C19.5148 28.2053 19.7164 28.2881 19.9219 28.2881C20.1273 28.2881 20.3289 28.2053 20.4742 28.0592C20.6195 27.9139 20.7031 27.7131 20.7031 27.5068C20.7031 27.3014 20.6195 27.0998 20.4742 26.9545Z" fill="#7772F1"/>
<path d="M36.0938 3.13184H23.6719C23.2404 3.13184 22.8906 3.4816 22.8906 3.91309C22.8906 4.34457 23.2404 4.69434 23.6719 4.69434H35.3125V24.2256H4.6875V4.69434H16.6797C17.1112 4.69434 17.4609 4.34457 17.4609 3.91309C17.4609 3.4816 17.1112 3.13184 16.6797 3.13184H3.90625C3.47477 3.13184 3.125 3.4816 3.125 3.91309V25.0068C3.125 25.4383 3.47477 25.7881 3.90625 25.7881H36.0938C36.5252 25.7881 36.875 25.4383 36.875 25.0068V3.91309C36.875 3.4816 36.5252 3.13184 36.0938 3.13184Z" fill="#7772F1"/>
<path d="M20.7086 3.35977C20.5633 3.21445 20.3617 3.13086 20.1562 3.13086C19.9508 3.13086 19.7492 3.21445 19.6039 3.35977C19.4586 3.50508 19.375 3.70664 19.375 3.91211C19.375 4.11758 19.4586 4.31914 19.6039 4.46523C19.7492 4.61055 19.9508 4.69336 20.1562 4.69336C20.3617 4.69336 20.5633 4.61055 20.7086 4.46523C20.8539 4.31914 20.9375 4.11836 20.9375 3.91211C20.9375 3.70664 20.8539 3.50508 20.7086 3.35977Z" fill="#7772F1"/>
</g>
<path d="M60.12 13.54H62.38C62.6133 13.54 62.8067 13.5967 62.96 13.71C63.12 13.8167 63.2267 13.9633 63.28 14.15L65.74 22.8C65.8 23.0133 65.8533 23.2467 65.9 23.5C65.9533 23.7467 66.0033 24.01 66.05 24.29C66.1033 24.01 66.16 23.7467 66.22 23.5C66.2867 23.2467 66.3567 23.0133 66.43 22.8L69.27 14.15C69.3233 13.9967 69.4267 13.8567 69.58 13.73C69.74 13.6033 69.9333 13.54 70.16 13.54H70.95C71.1833 13.54 71.3767 13.5967 71.53 13.71C71.6833 13.8167 71.79 13.9633 71.85 14.15L74.67 22.8C74.8167 23.2267 74.9433 23.7 75.05 24.22C75.0967 23.96 75.1433 23.71 75.19 23.47C75.2433 23.23 75.2967 23.0067 75.35 22.8L77.81 14.15C77.8567 13.9833 77.96 13.84 78.12 13.72C78.28 13.6 78.4733 13.54 78.7 13.54H80.81L76.32 28H73.89L70.73 18.12C70.69 17.9933 70.6467 17.8567 70.6 17.71C70.56 17.5633 70.52 17.4067 70.48 17.24C70.44 17.4067 70.3967 17.5633 70.35 17.71C70.31 17.8567 70.27 17.9933 70.23 18.12L67.04 28H64.61L60.12 13.54ZM86.0873 17.58C86.734 17.58 87.3273 17.6833 87.8673 17.89C88.414 18.0967 88.884 18.4 89.2773 18.8C89.6707 19.1933 89.9773 19.68 90.1973 20.26C90.4173 20.8333 90.5273 21.49 90.5273 22.23C90.5273 22.4167 90.5173 22.5733 90.4973 22.7C90.484 22.82 90.454 22.9167 90.4073 22.99C90.3673 23.0567 90.3107 23.1067 90.2373 23.14C90.164 23.1667 90.0707 23.18 89.9573 23.18H83.6173C83.6907 24.2333 83.974 25.0067 84.4673 25.5C84.9607 25.9933 85.614 26.24 86.4273 26.24C86.8273 26.24 87.1707 26.1933 87.4573 26.1C87.7507 26.0067 88.004 25.9033 88.2173 25.79C88.4373 25.6767 88.6273 25.5733 88.7873 25.48C88.954 25.3867 89.114 25.34 89.2673 25.34C89.3673 25.34 89.454 25.36 89.5273 25.4C89.6007 25.44 89.664 25.4967 89.7173 25.57L90.4373 26.47C90.164 26.79 89.8573 27.06 89.5173 27.28C89.1773 27.4933 88.8207 27.6667 88.4473 27.8C88.0807 27.9267 87.704 28.0167 87.3173 28.07C86.9373 28.1233 86.5673 28.15 86.2073 28.15C85.494 28.15 84.8307 28.0333 84.2173 27.8C83.604 27.56 83.0707 27.21 82.6173 26.75C82.164 26.2833 81.8073 25.71 81.5473 25.03C81.2873 24.3433 81.1573 23.55 81.1573 22.65C81.1573 21.95 81.2707 21.2933 81.4973 20.68C81.724 20.06 82.0473 19.5233 82.4673 19.07C82.894 18.61 83.4107 18.2467 84.0173 17.98C84.6307 17.7133 85.3207 17.58 86.0873 17.58ZM86.1373 19.35C85.4173 19.35 84.854 19.5533 84.4473 19.96C84.0407 20.3667 83.7807 20.9433 83.6673 21.69H88.3073C88.3073 21.37 88.264 21.07 88.1773 20.79C88.0907 20.5033 87.9573 20.2533 87.7773 20.04C87.5973 19.8267 87.3707 19.66 87.0973 19.54C86.824 19.4133 86.504 19.35 86.1373 19.35ZM92.5609 28V13.14H95.0309V19C95.4376 18.5667 95.8976 18.2233 96.4109 17.97C96.9243 17.71 97.5243 17.58 98.2109 17.58C98.7709 17.58 99.2809 17.6967 99.7409 17.93C100.208 18.1567 100.608 18.49 100.941 18.93C101.281 19.37 101.541 19.9133 101.721 20.56C101.908 21.2067 102.001 21.95 102.001 22.79C102.001 23.5567 101.898 24.2667 101.691 24.92C101.484 25.5733 101.188 26.14 100.801 26.62C100.421 27.1 99.9576 27.4767 99.4109 27.75C98.8709 28.0167 98.2643 28.15 97.5909 28.15C97.2776 28.15 96.9909 28.1167 96.7309 28.05C96.4709 27.99 96.2343 27.9033 96.0209 27.79C95.8076 27.6767 95.6076 27.54 95.4209 27.38C95.2409 27.2133 95.0676 27.03 94.9009 26.83L94.7909 27.52C94.7509 27.6933 94.6809 27.8167 94.5809 27.89C94.4876 27.9633 94.3576 28 94.1909 28H92.5609ZM97.3609 19.5C96.8476 19.5 96.4076 19.61 96.0409 19.83C95.6809 20.0433 95.3443 20.3467 95.0309 20.74V25.34C95.3109 25.6867 95.6143 25.93 95.9409 26.07C96.2743 26.2033 96.6343 26.27 97.0209 26.27C97.3943 26.27 97.7309 26.2 98.0309 26.06C98.3309 25.92 98.5843 25.7067 98.7909 25.42C99.0043 25.1333 99.1676 24.7733 99.2809 24.34C99.3943 23.9 99.4509 23.3833 99.4509 22.79C99.4509 22.19 99.4009 21.6833 99.3009 21.27C99.2076 20.85 99.0709 20.51 98.8909 20.25C98.7109 19.99 98.4909 19.8 98.2309 19.68C97.9776 19.56 97.6876 19.5 97.3609 19.5ZM110.027 19.74C109.961 19.8467 109.891 19.9233 109.817 19.97C109.744 20.01 109.651 20.03 109.537 20.03C109.417 20.03 109.287 19.9967 109.147 19.93C109.014 19.8633 108.857 19.79 108.677 19.71C108.497 19.6233 108.291 19.5467 108.057 19.48C107.831 19.4133 107.561 19.38 107.247 19.38C106.761 19.38 106.377 19.4833 106.097 19.69C105.817 19.8967 105.677 20.1667 105.677 20.5C105.677 20.72 105.747 20.9067 105.887 21.06C106.034 21.2067 106.224 21.3367 106.457 21.45C106.697 21.5633 106.967 21.6667 107.267 21.76C107.567 21.8467 107.874 21.9433 108.187 22.05C108.501 22.1567 108.807 22.28 109.107 22.42C109.407 22.5533 109.674 22.7267 109.907 22.94C110.147 23.1467 110.337 23.3967 110.477 23.69C110.624 23.9833 110.697 24.3367 110.697 24.75C110.697 25.2433 110.607 25.7 110.427 26.12C110.247 26.5333 109.984 26.8933 109.637 27.2C109.291 27.5 108.861 27.7367 108.347 27.91C107.841 28.0767 107.257 28.16 106.597 28.16C106.244 28.16 105.897 28.1267 105.557 28.06C105.224 28 104.901 27.9133 104.587 27.8C104.281 27.6867 103.994 27.5533 103.727 27.4C103.467 27.2467 103.237 27.08 103.037 26.9L103.607 25.96C103.681 25.8467 103.767 25.76 103.867 25.7C103.967 25.64 104.094 25.61 104.247 25.61C104.401 25.61 104.544 25.6533 104.677 25.74C104.817 25.8267 104.977 25.92 105.157 26.02C105.337 26.12 105.547 26.2133 105.787 26.3C106.034 26.3867 106.344 26.43 106.717 26.43C107.011 26.43 107.261 26.3967 107.467 26.33C107.681 26.2567 107.854 26.1633 107.987 26.05C108.127 25.9367 108.227 25.8067 108.287 25.66C108.354 25.5067 108.387 25.35 108.387 25.19C108.387 24.95 108.314 24.7533 108.167 24.6C108.027 24.4467 107.837 24.3133 107.597 24.2C107.364 24.0867 107.094 23.9867 106.787 23.9C106.487 23.8067 106.177 23.7067 105.857 23.6C105.544 23.4933 105.234 23.37 104.927 23.23C104.627 23.0833 104.357 22.9 104.117 22.68C103.884 22.46 103.694 22.19 103.547 21.87C103.407 21.55 103.337 21.1633 103.337 20.71C103.337 20.29 103.421 19.89 103.587 19.51C103.754 19.13 103.997 18.8 104.317 18.52C104.644 18.2333 105.047 18.0067 105.527 17.84C106.014 17.6667 106.574 17.58 107.207 17.58C107.914 17.58 108.557 17.6967 109.137 17.93C109.717 18.1633 110.201 18.47 110.587 18.85L110.027 19.74ZM115.298 17.74V28H112.828V17.74H115.298ZM115.668 14.75C115.668 14.9633 115.624 15.1633 115.538 15.35C115.451 15.5367 115.334 15.7 115.188 15.84C115.048 15.98 114.881 16.0933 114.688 16.18C114.494 16.26 114.288 16.3 114.068 16.3C113.854 16.3 113.651 16.26 113.458 16.18C113.271 16.0933 113.108 15.98 112.968 15.84C112.828 15.7 112.714 15.5367 112.628 15.35C112.548 15.1633 112.508 14.9633 112.508 14.75C112.508 14.53 112.548 14.3233 112.628 14.13C112.714 13.9367 112.828 13.77 112.968 13.63C113.108 13.49 113.271 13.38 113.458 13.3C113.651 13.2133 113.854 13.17 114.068 13.17C114.288 13.17 114.494 13.2133 114.688 13.3C114.881 13.38 115.048 13.49 115.188 13.63C115.334 13.77 115.451 13.9367 115.538 14.13C115.624 14.3233 115.668 14.53 115.668 14.75ZM121.467 28.16C120.581 28.16 119.897 27.91 119.417 27.41C118.937 26.9033 118.697 26.2067 118.697 25.32V19.59H117.657C117.524 19.59 117.407 19.5467 117.307 19.46C117.214 19.3733 117.167 19.2433 117.167 19.07V18.09L118.817 17.82L119.337 15.02C119.364 14.8867 119.424 14.7833 119.517 14.71C119.617 14.6367 119.741 14.6 119.887 14.6H121.167V17.83H123.867V19.59H121.167V25.15C121.167 25.47 121.247 25.72 121.407 25.9C121.567 26.08 121.781 26.17 122.047 26.17C122.201 26.17 122.327 26.1533 122.427 26.12C122.534 26.08 122.624 26.04 122.697 26C122.777 25.96 122.847 25.9233 122.907 25.89C122.967 25.85 123.027 25.83 123.087 25.83C123.161 25.83 123.221 25.85 123.267 25.89C123.314 25.9233 123.364 25.9767 123.417 26.05L124.157 27.25C123.797 27.55 123.384 27.7767 122.917 27.93C122.451 28.0833 121.967 28.16 121.467 28.16ZM130.072 17.58C130.718 17.58 131.312 17.6833 131.852 17.89C132.398 18.0967 132.868 18.4 133.262 18.8C133.655 19.1933 133.962 19.68 134.182 20.26C134.402 20.8333 134.512 21.49 134.512 22.23C134.512 22.4167 134.502 22.5733 134.482 22.7C134.468 22.82 134.438 22.9167 134.392 22.99C134.352 23.0567 134.295 23.1067 134.222 23.14C134.148 23.1667 134.055 23.18 133.942 23.18H127.602C127.675 24.2333 127.958 25.0067 128.452 25.5C128.945 25.9933 129.598 26.24 130.412 26.24C130.812 26.24 131.155 26.1933 131.442 26.1C131.735 26.0067 131.988 25.9033 132.202 25.79C132.422 25.6767 132.612 25.5733 132.772 25.48C132.938 25.3867 133.098 25.34 133.252 25.34C133.352 25.34 133.438 25.36 133.512 25.4C133.585 25.44 133.648 25.4967 133.702 25.57L134.422 26.47C134.148 26.79 133.842 27.06 133.502 27.28C133.162 27.4933 132.805 27.6667 132.432 27.8C132.065 27.9267 131.688 28.0167 131.302 28.07C130.922 28.1233 130.552 28.15 130.192 28.15C129.478 28.15 128.815 28.0333 128.202 27.8C127.588 27.56 127.055 27.21 126.602 26.75C126.148 26.2833 125.792 25.71 125.532 25.03C125.272 24.3433 125.142 23.55 125.142 22.65C125.142 21.95 125.255 21.2933 125.482 20.68C125.708 20.06 126.032 19.5233 126.452 19.07C126.878 18.61 127.395 18.2467 128.002 17.98C128.615 17.7133 129.305 17.58 130.072 17.58ZM130.122 19.35C129.402 19.35 128.838 19.5533 128.432 19.96C128.025 20.3667 127.765 20.9433 127.652 21.69H132.292C132.292 21.37 132.248 21.07 132.162 20.79C132.075 20.5033 131.942 20.2533 131.762 20.04C131.582 19.8267 131.355 19.66 131.082 19.54C130.808 19.4133 130.488 19.35 130.122 19.35ZM145.693 13.38C146.279 13.38 146.803 13.47 147.263 13.65C147.729 13.83 148.126 14.07 148.453 14.37C148.786 14.67 149.046 15.0133 149.233 15.4C149.426 15.7867 149.539 16.1867 149.572 16.6L148.003 16.93C147.983 16.9367 147.959 16.94 147.933 16.94C147.913 16.94 147.893 16.94 147.873 16.94C147.759 16.94 147.656 16.91 147.563 16.85C147.476 16.7833 147.406 16.6833 147.353 16.55C147.293 16.3767 147.216 16.2133 147.123 16.06C147.029 15.9 146.916 15.7633 146.783 15.65C146.649 15.53 146.493 15.4367 146.313 15.37C146.133 15.2967 145.926 15.26 145.693 15.26C145.413 15.26 145.163 15.31 144.942 15.41C144.723 15.5033 144.536 15.6333 144.383 15.8C144.229 15.96 144.113 16.15 144.033 16.37C143.953 16.5833 143.913 16.81 143.913 17.05C143.913 17.25 143.933 17.4433 143.973 17.63C144.019 17.8167 144.089 18.0033 144.183 18.19C144.276 18.3767 144.396 18.57 144.543 18.77C144.696 18.9633 144.883 19.1733 145.103 19.4L148.943 23.39C149.163 22.97 149.339 22.5267 149.473 22.06C149.606 21.5933 149.693 21.12 149.733 20.64C149.746 20.4867 149.796 20.3633 149.883 20.27C149.969 20.1767 150.089 20.13 150.243 20.13H151.793C151.786 21.01 151.659 21.85 151.413 22.65C151.166 23.45 150.813 24.1867 150.353 24.86L153.383 28H150.963C150.836 28 150.723 27.9933 150.623 27.98C150.529 27.9667 150.439 27.9433 150.353 27.91C150.266 27.87 150.183 27.82 150.103 27.76C150.023 27.7 149.939 27.6233 149.852 27.53L148.853 26.5C148.213 27.02 147.499 27.4267 146.713 27.72C145.933 28.0133 145.086 28.16 144.173 28.16C143.613 28.16 143.066 28.0667 142.533 27.88C141.999 27.6867 141.523 27.41 141.103 27.05C140.683 26.69 140.343 26.2567 140.083 25.75C139.829 25.2367 139.703 24.66 139.703 24.02C139.703 23.5733 139.776 23.15 139.923 22.75C140.069 22.3433 140.273 21.9667 140.532 21.62C140.793 21.2733 141.099 20.96 141.453 20.68C141.813 20.4 142.206 20.16 142.633 19.96C142.279 19.46 142.019 18.9733 141.853 18.5C141.693 18.02 141.613 17.5433 141.613 17.07C141.613 16.57 141.703 16.0967 141.883 15.65C142.069 15.1967 142.336 14.8033 142.683 14.47C143.036 14.1367 143.466 13.8733 143.973 13.68C144.479 13.48 145.053 13.38 145.693 13.38ZM142.213 23.82C142.213 24.1867 142.276 24.5167 142.403 24.81C142.529 25.1033 142.703 25.3533 142.923 25.56C143.143 25.76 143.396 25.9167 143.683 26.03C143.976 26.1367 144.286 26.19 144.613 26.19C145.199 26.19 145.733 26.1 146.213 25.92C146.699 25.7333 147.143 25.4767 147.543 25.15L143.743 21.25C143.209 21.5967 142.819 21.9867 142.573 22.42C142.333 22.8533 142.213 23.32 142.213 23.82ZM166.417 16.17C166.344 16.3167 166.257 16.42 166.157 16.48C166.064 16.54 165.95 16.57 165.817 16.57C165.684 16.57 165.534 16.52 165.367 16.42C165.2 16.3133 165.004 16.1967 164.777 16.07C164.55 15.9433 164.284 15.83 163.977 15.73C163.677 15.6233 163.32 15.57 162.907 15.57C162.534 15.57 162.207 15.6167 161.927 15.71C161.654 15.7967 161.42 15.92 161.227 16.08C161.04 16.24 160.9 16.4333 160.807 16.66C160.714 16.88 160.667 17.1233 160.667 17.39C160.667 17.73 160.76 18.0133 160.947 18.24C161.14 18.4667 161.394 18.66 161.707 18.82C162.02 18.98 162.377 19.1233 162.777 19.25C163.177 19.3767 163.584 19.5133 163.997 19.66C164.417 19.8 164.827 19.9667 165.227 20.16C165.627 20.3467 165.984 20.5867 166.297 20.88C166.61 21.1667 166.86 21.52 167.047 21.94C167.24 22.36 167.337 22.87 167.337 23.47C167.337 24.1233 167.224 24.7367 166.997 25.31C166.777 25.8767 166.45 26.3733 166.017 26.8C165.59 27.22 165.067 27.5533 164.447 27.8C163.827 28.04 163.117 28.16 162.317 28.16C161.857 28.16 161.404 28.1133 160.957 28.02C160.51 27.9333 160.08 27.8067 159.667 27.64C159.26 27.4733 158.877 27.2733 158.517 27.04C158.164 26.8067 157.847 26.5467 157.567 26.26L158.347 24.97C158.42 24.8767 158.507 24.8 158.607 24.74C158.714 24.6733 158.83 24.64 158.957 24.64C159.124 24.64 159.304 24.71 159.497 24.85C159.69 24.9833 159.917 25.1333 160.177 25.3C160.444 25.4667 160.754 25.62 161.107 25.76C161.467 25.8933 161.897 25.96 162.397 25.96C163.164 25.96 163.757 25.78 164.177 25.42C164.597 25.0533 164.807 24.53 164.807 23.85C164.807 23.47 164.71 23.16 164.517 22.92C164.33 22.68 164.08 22.48 163.767 22.32C163.454 22.1533 163.097 22.0133 162.697 21.9C162.297 21.7867 161.89 21.6633 161.477 21.53C161.064 21.3967 160.657 21.2367 160.257 21.05C159.857 20.8633 159.5 20.62 159.187 20.32C158.874 20.02 158.62 19.6467 158.427 19.2C158.24 18.7467 158.147 18.19 158.147 17.53C158.147 17.0033 158.25 16.49 158.457 15.99C158.67 15.49 158.977 15.0467 159.377 14.66C159.784 14.2733 160.28 13.9633 160.867 13.73C161.454 13.4967 162.124 13.38 162.877 13.38C163.73 13.38 164.517 13.5133 165.237 13.78C165.957 14.0467 166.57 14.42 167.077 14.9L166.417 16.17ZM173.63 17.58C174.396 17.58 175.09 17.7033 175.71 17.95C176.336 18.1967 176.87 18.5467 177.31 19C177.75 19.4533 178.09 20.0067 178.33 20.66C178.57 21.3133 178.69 22.0433 178.69 22.85C178.69 23.6633 178.57 24.3967 178.33 25.05C178.09 25.7033 177.75 26.26 177.31 26.72C176.87 27.18 176.336 27.5333 175.71 27.78C175.09 28.0267 174.396 28.15 173.63 28.15C172.863 28.15 172.166 28.0267 171.54 27.78C170.913 27.5333 170.376 27.18 169.93 26.72C169.49 26.26 169.146 25.7033 168.9 25.05C168.66 24.3967 168.54 23.6633 168.54 22.85C168.54 22.0433 168.66 21.3133 168.9 20.66C169.146 20.0067 169.49 19.4533 169.93 19C170.376 18.5467 170.913 18.1967 171.54 17.95C172.166 17.7033 172.863 17.58 173.63 17.58ZM173.63 26.25C174.483 26.25 175.113 25.9633 175.52 25.39C175.933 24.8167 176.14 23.9767 176.14 22.87C176.14 21.7633 175.933 20.92 175.52 20.34C175.113 19.76 174.483 19.47 173.63 19.47C172.763 19.47 172.123 19.7633 171.71 20.35C171.296 20.93 171.09 21.77 171.09 22.87C171.09 23.97 171.296 24.81 171.71 25.39C172.123 25.9633 172.763 26.25 173.63 26.25ZM187.827 19.91C187.754 20.0033 187.68 20.0767 187.607 20.13C187.54 20.1833 187.44 20.21 187.307 20.21C187.18 20.21 187.057 20.1733 186.937 20.1C186.817 20.02 186.674 19.9333 186.507 19.84C186.34 19.74 186.14 19.6533 185.907 19.58C185.68 19.5 185.397 19.46 185.057 19.46C184.624 19.46 184.244 19.54 183.917 19.7C183.59 19.8533 183.317 20.0767 183.097 20.37C182.884 20.6633 182.724 21.02 182.617 21.44C182.51 21.8533 182.457 22.3233 182.457 22.85C182.457 23.3967 182.514 23.8833 182.627 24.31C182.747 24.7367 182.917 25.0967 183.137 25.39C183.357 25.6767 183.624 25.8967 183.937 26.05C184.25 26.1967 184.604 26.27 184.997 26.27C185.39 26.27 185.707 26.2233 185.947 26.13C186.194 26.03 186.4 25.9233 186.567 25.81C186.734 25.69 186.877 25.5833 186.997 25.49C187.124 25.39 187.264 25.34 187.417 25.34C187.617 25.34 187.767 25.4167 187.867 25.57L188.577 26.47C188.304 26.79 188.007 27.06 187.687 27.28C187.367 27.4933 187.034 27.6667 186.687 27.8C186.347 27.9267 185.994 28.0167 185.627 28.07C185.26 28.1233 184.897 28.15 184.537 28.15C183.904 28.15 183.307 28.0333 182.747 27.8C182.187 27.56 181.697 27.2133 181.277 26.76C180.864 26.3067 180.534 25.7533 180.287 25.1C180.047 24.44 179.927 23.69 179.927 22.85C179.927 22.0967 180.034 21.4 180.247 20.76C180.467 20.1133 180.787 19.5567 181.207 19.09C181.627 18.6167 182.147 18.2467 182.767 17.98C183.387 17.7133 184.1 17.58 184.907 17.58C185.674 17.58 186.344 17.7033 186.917 17.95C187.497 18.1967 188.017 18.55 188.477 19.01L187.827 19.91ZM192.778 17.74V28H190.308V17.74H192.778ZM193.148 14.75C193.148 14.9633 193.105 15.1633 193.018 15.35C192.931 15.5367 192.815 15.7 192.668 15.84C192.528 15.98 192.361 16.0933 192.168 16.18C191.975 16.26 191.768 16.3 191.548 16.3C191.335 16.3 191.131 16.26 190.938 16.18C190.751 16.0933 190.588 15.98 190.448 15.84C190.308 15.7 190.195 15.5367 190.108 15.35C190.028 15.1633 189.988 14.9633 189.988 14.75C189.988 14.53 190.028 14.3233 190.108 14.13C190.195 13.9367 190.308 13.77 190.448 13.63C190.588 13.49 190.751 13.38 190.938 13.3C191.131 13.2133 191.335 13.17 191.548 13.17C191.768 13.17 191.975 13.2133 192.168 13.3C192.361 13.38 192.528 13.49 192.668 13.63C192.815 13.77 192.931 13.9367 193.018 14.13C193.105 14.3233 193.148 14.53 193.148 14.75ZM203.618 28H202.508C202.274 28 202.091 27.9667 201.958 27.9C201.824 27.8267 201.724 27.6833 201.658 27.47L201.438 26.74C201.178 26.9733 200.921 27.18 200.668 27.36C200.421 27.5333 200.164 27.68 199.898 27.8C199.631 27.92 199.348 28.01 199.048 28.07C198.748 28.13 198.414 28.16 198.048 28.16C197.614 28.16 197.214 28.1033 196.848 27.99C196.481 27.87 196.164 27.6933 195.898 27.46C195.638 27.2267 195.434 26.9367 195.288 26.59C195.141 26.2433 195.068 25.84 195.068 25.38C195.068 24.9933 195.168 24.6133 195.368 24.24C195.574 23.86 195.914 23.52 196.388 23.22C196.861 22.9133 197.491 22.66 198.278 22.46C199.064 22.26 200.041 22.1467 201.208 22.12V21.52C201.208 20.8333 201.061 20.3267 200.768 20C200.481 19.6667 200.061 19.5 199.508 19.5C199.108 19.5 198.774 19.5467 198.508 19.64C198.241 19.7333 198.008 19.84 197.808 19.96C197.614 20.0733 197.434 20.1767 197.268 20.27C197.101 20.3633 196.918 20.41 196.718 20.41C196.551 20.41 196.408 20.3667 196.288 20.28C196.168 20.1933 196.071 20.0867 195.998 19.96L195.548 19.17C196.728 18.09 198.151 17.55 199.818 17.55C200.418 17.55 200.951 17.65 201.418 17.85C201.891 18.0433 202.291 18.3167 202.618 18.67C202.944 19.0167 203.191 19.4333 203.358 19.92C203.531 20.4067 203.618 20.94 203.618 21.52V28ZM198.818 26.46C199.071 26.46 199.304 26.4367 199.518 26.39C199.731 26.3433 199.931 26.2733 200.118 26.18C200.311 26.0867 200.494 25.9733 200.668 25.84C200.848 25.7 201.028 25.5367 201.208 25.35V23.62C200.488 23.6533 199.884 23.7167 199.398 23.81C198.918 23.8967 198.531 24.01 198.238 24.15C197.944 24.29 197.734 24.4533 197.608 24.64C197.488 24.8267 197.428 25.03 197.428 25.25C197.428 25.6833 197.554 25.9933 197.808 26.18C198.068 26.3667 198.404 26.46 198.818 26.46ZM208.677 13.14V28H206.207V13.14H208.677ZM222.743 22C222.857 22.2133 222.96 22.4367 223.053 22.67C223.153 22.8967 223.25 23.1267 223.343 23.36C223.437 23.12 223.533 22.8833 223.633 22.65C223.733 22.4167 223.84 22.1933 223.953 21.98L228.233 13.97C228.287 13.87 228.34 13.79 228.393 13.73C228.453 13.67 228.517 13.6267 228.583 13.6C228.657 13.5733 228.737 13.5567 228.823 13.55C228.91 13.5433 229.013 13.54 229.133 13.54H231.163V28H228.793V18.66C228.793 18.4867 228.797 18.2967 228.803 18.09C228.817 17.8833 228.833 17.6733 228.853 17.46L224.483 25.66C224.383 25.8467 224.253 25.9933 224.093 26.1C223.933 26.2 223.747 26.25 223.533 26.25H223.163C222.95 26.25 222.763 26.2 222.603 26.1C222.443 25.9933 222.313 25.8467 222.213 25.66L217.783 17.43C217.81 17.65 217.827 17.8667 217.833 18.08C217.847 18.2867 217.853 18.48 217.853 18.66V28H215.483V13.54H217.513C217.633 13.54 217.737 13.5433 217.823 13.55C217.91 13.5567 217.987 13.5733 218.053 13.6C218.127 13.6267 218.193 13.67 218.253 13.73C218.313 13.79 218.37 13.87 218.423 13.97L222.743 22ZM238.177 17.58C238.824 17.58 239.417 17.6833 239.957 17.89C240.504 18.0967 240.974 18.4 241.367 18.8C241.761 19.1933 242.067 19.68 242.287 20.26C242.507 20.8333 242.617 21.49 242.617 22.23C242.617 22.4167 242.607 22.5733 242.587 22.7C242.574 22.82 242.544 22.9167 242.497 22.99C242.457 23.0567 242.401 23.1067 242.327 23.14C242.254 23.1667 242.161 23.18 242.047 23.18H235.707C235.781 24.2333 236.064 25.0067 236.557 25.5C237.051 25.9933 237.704 26.24 238.517 26.24C238.917 26.24 239.261 26.1933 239.547 26.1C239.841 26.0067 240.094 25.9033 240.307 25.79C240.527 25.6767 240.717 25.5733 240.877 25.48C241.044 25.3867 241.204 25.34 241.357 25.34C241.457 25.34 241.544 25.36 241.617 25.4C241.691 25.44 241.754 25.4967 241.807 25.57L242.527 26.47C242.254 26.79 241.947 27.06 241.607 27.28C241.267 27.4933 240.911 27.6667 240.537 27.8C240.171 27.9267 239.794 28.0167 239.407 28.07C239.027 28.1233 238.657 28.15 238.297 28.15C237.584 28.15 236.921 28.0333 236.307 27.8C235.694 27.56 235.161 27.21 234.707 26.75C234.254 26.2833 233.897 25.71 233.637 25.03C233.377 24.3433 233.247 23.55 233.247 22.65C233.247 21.95 233.361 21.2933 233.587 20.68C233.814 20.06 234.137 19.5233 234.557 19.07C234.984 18.61 235.501 18.2467 236.107 17.98C236.721 17.7133 237.411 17.58 238.177 17.58ZM238.227 19.35C237.507 19.35 236.944 19.5533 236.537 19.96C236.131 20.3667 235.871 20.9433 235.757 21.69H240.397C240.397 21.37 240.354 21.07 240.267 20.79C240.181 20.5033 240.047 20.2533 239.867 20.04C239.687 19.8267 239.461 19.66 239.187 19.54C238.914 19.4133 238.594 19.35 238.227 19.35ZM251.841 28C251.521 28 251.311 27.85 251.211 27.55L251.011 26.56C250.797 26.8 250.574 27.0167 250.341 27.21C250.107 27.4033 249.854 27.57 249.581 27.71C249.314 27.85 249.024 27.9567 248.711 28.03C248.404 28.11 248.071 28.15 247.711 28.15C247.151 28.15 246.637 28.0333 246.171 27.8C245.704 27.5667 245.301 27.23 244.961 26.79C244.627 26.3433 244.367 25.7933 244.181 25.14C244.001 24.4867 243.911 23.74 243.911 22.9C243.911 22.14 244.014 21.4333 244.221 20.78C244.427 20.1267 244.724 19.56 245.111 19.08C245.497 18.6 245.961 18.2267 246.501 17.96C247.041 17.6867 247.647 17.55 248.321 17.55C248.894 17.55 249.384 17.6433 249.791 17.83C250.197 18.01 250.561 18.2533 250.881 18.56V13.14H253.351V28H251.841ZM248.551 26.19C249.064 26.19 249.501 26.0833 249.861 25.87C250.221 25.6567 250.561 25.3533 250.881 24.96V20.36C250.601 20.02 250.294 19.78 249.961 19.64C249.634 19.5 249.281 19.43 248.901 19.43C248.527 19.43 248.187 19.5 247.881 19.64C247.581 19.78 247.324 19.9933 247.111 20.28C246.904 20.56 246.744 20.92 246.631 21.36C246.517 21.7933 246.461 22.3067 246.461 22.9C246.461 23.5 246.507 24.01 246.601 24.43C246.701 24.8433 246.841 25.1833 247.021 25.45C247.201 25.71 247.421 25.9 247.681 26.02C247.941 26.1333 248.231 26.19 248.551 26.19ZM258.657 17.74V28H256.187V17.74H258.657ZM259.027 14.75C259.027 14.9633 258.984 15.1633 258.897 15.35C258.81 15.5367 258.694 15.7 258.547 15.84C258.407 15.98 258.24 16.0933 258.047 16.18C257.854 16.26 257.647 16.3 257.427 16.3C257.214 16.3 257.01 16.26 256.817 16.18C256.63 16.0933 256.467 15.98 256.327 15.84C256.187 15.7 256.074 15.5367 255.987 15.35C255.907 15.1633 255.867 14.9633 255.867 14.75C255.867 14.53 255.907 14.3233 255.987 14.13C256.074 13.9367 256.187 13.77 256.327 13.63C256.467 13.49 256.63 13.38 256.817 13.3C257.01 13.2133 257.214 13.17 257.427 13.17C257.647 13.17 257.854 13.2133 258.047 13.3C258.24 13.38 258.407 13.49 258.547 13.63C258.694 13.77 258.81 13.9367 258.897 14.13C258.984 14.3233 259.027 14.53 259.027 14.75ZM269.497 28H268.387C268.153 28 267.97 27.9667 267.837 27.9C267.703 27.8267 267.603 27.6833 267.537 27.47L267.317 26.74C267.057 26.9733 266.8 27.18 266.547 27.36C266.3 27.5333 266.043 27.68 265.777 27.8C265.51 27.92 265.227 28.01 264.927 28.07C264.627 28.13 264.293 28.16 263.927 28.16C263.493 28.16 263.093 28.1033 262.727 27.99C262.36 27.87 262.043 27.6933 261.777 27.46C261.517 27.2267 261.313 26.9367 261.167 26.59C261.02 26.2433 260.947 25.84 260.947 25.38C260.947 24.9933 261.047 24.6133 261.247 24.24C261.453 23.86 261.793 23.52 262.267 23.22C262.74 22.9133 263.37 22.66 264.157 22.46C264.943 22.26 265.92 22.1467 267.087 22.12V21.52C267.087 20.8333 266.94 20.3267 266.647 20C266.36 19.6667 265.94 19.5 265.387 19.5C264.987 19.5 264.653 19.5467 264.387 19.64C264.12 19.7333 263.887 19.84 263.687 19.96C263.493 20.0733 263.313 20.1767 263.147 20.27C262.98 20.3633 262.797 20.41 262.597 20.41C262.43 20.41 262.287 20.3667 262.167 20.28C262.047 20.1933 261.95 20.0867 261.877 19.96L261.427 19.17C262.607 18.09 264.03 17.55 265.697 17.55C266.297 17.55 266.83 17.65 267.297 17.85C267.77 18.0433 268.17 18.3167 268.497 18.67C268.823 19.0167 269.07 19.4333 269.237 19.92C269.41 20.4067 269.497 20.94 269.497 21.52V28ZM264.697 26.46C264.95 26.46 265.183 26.4367 265.397 26.39C265.61 26.3433 265.81 26.2733 265.997 26.18C266.19 26.0867 266.373 25.9733 266.547 25.84C266.727 25.7 266.907 25.5367 267.087 25.35V23.62C266.367 23.6533 265.763 23.7167 265.277 23.81C264.797 23.8967 264.41 24.01 264.117 24.15C263.823 24.29 263.613 24.4533 263.487 24.64C263.367 24.8267 263.307 25.03 263.307 25.25C263.307 25.6833 263.433 25.9933 263.687 26.18C263.947 26.3667 264.283 26.46 264.697 26.46ZM283.193 22C283.306 22.2133 283.409 22.4367 283.503 22.67C283.603 22.8967 283.699 23.1267 283.793 23.36C283.886 23.12 283.983 22.8833 284.083 22.65C284.183 22.4167 284.289 22.1933 284.403 21.98L288.683 13.97C288.736 13.87 288.789 13.79 288.843 13.73C288.903 13.67 288.966 13.6267 289.033 13.6C289.106 13.5733 289.186 13.5567 289.273 13.55C289.359 13.5433 289.463 13.54 289.583 13.54H291.613V28H289.243V18.66C289.243 18.4867 289.246 18.2967 289.253 18.09C289.266 17.8833 289.283 17.6733 289.303 17.46L284.933 25.66C284.833 25.8467 284.703 25.9933 284.543 26.1C284.383 26.2 284.196 26.25 283.983 26.25H283.613C283.399 26.25 283.213 26.2 283.053 26.1C282.893 25.9933 282.763 25.8467 282.663 25.66L278.233 17.43C278.259 17.65 278.276 17.8667 278.283 18.08C278.296 18.2867 278.303 18.48 278.303 18.66V28H275.933V13.54H277.963C278.083 13.54 278.186 13.5433 278.273 13.55C278.359 13.5567 278.436 13.5733 278.503 13.6C278.576 13.6267 278.643 13.67 278.703 13.73C278.763 13.79 278.819 13.87 278.873 13.97L283.193 22ZM302.426 28H301.316C301.083 28 300.9 27.9667 300.766 27.9C300.633 27.8267 300.533 27.6833 300.466 27.47L300.246 26.74C299.986 26.9733 299.73 27.18 299.476 27.36C299.23 27.5333 298.973 27.68 298.706 27.8C298.44 27.92 298.156 28.01 297.856 28.07C297.556 28.13 297.223 28.16 296.856 28.16C296.423 28.16 296.023 28.1033 295.656 27.99C295.29 27.87 294.973 27.6933 294.706 27.46C294.446 27.2267 294.243 26.9367 294.096 26.59C293.95 26.2433 293.876 25.84 293.876 25.38C293.876 24.9933 293.976 24.6133 294.176 24.24C294.383 23.86 294.723 23.52 295.196 23.22C295.67 22.9133 296.3 22.66 297.086 22.46C297.873 22.26 298.85 22.1467 300.016 22.12V21.52C300.016 20.8333 299.87 20.3267 299.576 20C299.29 19.6667 298.87 19.5 298.316 19.5C297.916 19.5 297.583 19.5467 297.316 19.64C297.05 19.7333 296.816 19.84 296.616 19.96C296.423 20.0733 296.243 20.1767 296.076 20.27C295.91 20.3633 295.726 20.41 295.526 20.41C295.36 20.41 295.216 20.3667 295.096 20.28C294.976 20.1933 294.88 20.0867 294.806 19.96L294.356 19.17C295.536 18.09 296.96 17.55 298.626 17.55C299.226 17.55 299.76 17.65 300.226 17.85C300.7 18.0433 301.1 18.3167 301.426 18.67C301.753 19.0167 302 19.4333 302.166 19.92C302.34 20.4067 302.426 20.94 302.426 21.52V28ZM297.626 26.46C297.88 26.46 298.113 26.4367 298.326 26.39C298.54 26.3433 298.74 26.2733 298.926 26.18C299.12 26.0867 299.303 25.9733 299.476 25.84C299.656 25.7 299.836 25.5367 300.016 25.35V23.62C299.296 23.6533 298.693 23.7167 298.206 23.81C297.726 23.8967 297.34 24.01 297.046 24.15C296.753 24.29 296.543 24.4533 296.416 24.64C296.296 24.8267 296.236 25.03 296.236 25.25C296.236 25.6833 296.363 25.9933 296.616 26.18C296.876 26.3667 297.213 26.46 297.626 26.46ZM304.855 28V17.74H306.305C306.558 17.74 306.735 17.7867 306.835 17.88C306.935 17.9733 307.002 18.1333 307.035 18.36L307.185 19.6C307.552 18.9667 307.982 18.4667 308.475 18.1C308.968 17.7333 309.522 17.55 310.135 17.55C310.642 17.55 311.062 17.6667 311.395 17.9L311.075 19.75C311.055 19.87 311.012 19.9567 310.945 20.01C310.878 20.0567 310.788 20.08 310.675 20.08C310.575 20.08 310.438 20.0567 310.265 20.01C310.092 19.9633 309.862 19.94 309.575 19.94C309.062 19.94 308.622 20.0833 308.255 20.37C307.888 20.65 307.578 21.0633 307.325 21.61V28H304.855ZM315.519 13.14V21.65H315.979C316.146 21.65 316.276 21.6267 316.369 21.58C316.463 21.5333 316.563 21.4467 316.669 21.32L319.219 18.17C319.333 18.0367 319.453 17.9333 319.579 17.86C319.706 17.78 319.873 17.74 320.079 17.74H322.339L319.149 21.55C319.036 21.69 318.919 21.82 318.799 21.94C318.679 22.0533 318.549 22.1533 318.409 22.24C318.549 22.34 318.673 22.4567 318.779 22.59C318.886 22.7233 318.993 22.8667 319.099 23.02L322.519 28H320.289C320.096 28 319.933 27.9667 319.799 27.9C319.666 27.8333 319.546 27.72 319.439 27.56L316.829 23.67C316.729 23.5167 316.629 23.4167 316.529 23.37C316.429 23.3233 316.279 23.3 316.079 23.3H315.519V28H313.049V13.14H315.519ZM327.689 17.58C328.336 17.58 328.929 17.6833 329.469 17.89C330.016 18.0967 330.486 18.4 330.879 18.8C331.272 19.1933 331.579 19.68 331.799 20.26C332.019 20.8333 332.129 21.49 332.129 22.23C332.129 22.4167 332.119 22.5733 332.099 22.7C332.086 22.82 332.056 22.9167 332.009 22.99C331.969 23.0567 331.912 23.1067 331.839 23.14C331.766 23.1667 331.672 23.18 331.559 23.18H325.219C325.292 24.2333 325.576 25.0067 326.069 25.5C326.562 25.9933 327.216 26.24 328.029 26.24C328.429 26.24 328.772 26.1933 329.059 26.1C329.352 26.0067 329.606 25.9033 329.819 25.79C330.039 25.6767 330.229 25.5733 330.389 25.48C330.556 25.3867 330.716 25.34 330.869 25.34C330.969 25.34 331.056 25.36 331.129 25.4C331.202 25.44 331.266 25.4967 331.319 25.57L332.039 26.47C331.766 26.79 331.459 27.06 331.119 27.28C330.779 27.4933 330.422 27.6667 330.049 27.8C329.682 27.9267 329.306 28.0167 328.919 28.07C328.539 28.1233 328.169 28.15 327.809 28.15C327.096 28.15 326.432 28.0333 325.819 27.8C325.206 27.56 324.672 27.21 324.219 26.75C323.766 26.2833 323.409 25.71 323.149 25.03C322.889 24.3433 322.759 23.55 322.759 22.65C322.759 21.95 322.872 21.2933 323.099 20.68C323.326 20.06 323.649 19.5233 324.069 19.07C324.496 18.61 325.012 18.2467 325.619 17.98C326.232 17.7133 326.922 17.58 327.689 17.58ZM327.739 19.35C327.019 19.35 326.456 19.5533 326.049 19.96C325.642 20.3667 325.382 20.9433 325.269 21.69H329.909C329.909 21.37 329.866 21.07 329.779 20.79C329.692 20.5033 329.559 20.2533 329.379 20.04C329.199 19.8267 328.972 19.66 328.699 19.54C328.426 19.4133 328.106 19.35 327.739 19.35ZM337.503 28.16C336.616 28.16 335.933 27.91 335.452 27.41C334.973 26.9033 334.733 26.2067 334.733 25.32V19.59H333.693C333.559 19.59 333.443 19.5467 333.343 19.46C333.249 19.3733 333.203 19.2433 333.203 19.07V18.09L334.853 17.82L335.373 15.02C335.399 14.8867 335.459 14.7833 335.553 14.71C335.653 14.6367 335.776 14.6 335.923 14.6H337.203V17.83H339.903V19.59H337.203V25.15C337.203 25.47 337.283 25.72 337.443 25.9C337.603 26.08 337.816 26.17 338.083 26.17C338.236 26.17 338.363 26.1533 338.462 26.12C338.569 26.08 338.659 26.04 338.733 26C338.813 25.96 338.883 25.9233 338.943 25.89C339.003 25.85 339.063 25.83 339.123 25.83C339.196 25.83 339.256 25.85 339.303 25.89C339.349 25.9233 339.399 25.9767 339.453 26.05L340.193 27.25C339.833 27.55 339.419 27.7767 338.953 27.93C338.486 28.0833 338.003 28.16 337.503 28.16ZM344.497 17.74V28H342.027V17.74H344.497ZM344.867 14.75C344.867 14.9633 344.824 15.1633 344.737 15.35C344.65 15.5367 344.534 15.7 344.387 15.84C344.247 15.98 344.08 16.0933 343.887 16.18C343.694 16.26 343.487 16.3 343.267 16.3C343.054 16.3 342.85 16.26 342.657 16.18C342.47 16.0933 342.307 15.98 342.167 15.84C342.027 15.7 341.914 15.5367 341.827 15.35C341.747 15.1633 341.707 14.9633 341.707 14.75C341.707 14.53 341.747 14.3233 341.827 14.13C341.914 13.9367 342.027 13.77 342.167 13.63C342.307 13.49 342.47 13.38 342.657 13.3C342.85 13.2133 343.054 13.17 343.267 13.17C343.487 13.17 343.694 13.2133 343.887 13.3C344.08 13.38 344.247 13.49 344.387 13.63C344.534 13.77 344.65 13.9367 344.737 14.13C344.824 14.3233 344.867 14.53 344.867 14.75ZM347.297 28V17.74H348.807C349.127 17.74 349.337 17.89 349.437 18.19L349.607 19C349.813 18.7867 350.03 18.5933 350.257 18.42C350.49 18.2467 350.733 18.0967 350.987 17.97C351.247 17.8433 351.523 17.7467 351.817 17.68C352.11 17.6133 352.43 17.58 352.777 17.58C353.337 17.58 353.833 17.6767 354.267 17.87C354.7 18.0567 355.06 18.3233 355.347 18.67C355.64 19.01 355.86 19.42 356.007 19.9C356.16 20.3733 356.237 20.8967 356.237 21.47V28H353.767V21.47C353.767 20.8433 353.62 20.36 353.327 20.02C353.04 19.6733 352.607 19.5 352.027 19.5C351.6 19.5 351.2 19.5967 350.827 19.79C350.453 19.9833 350.1 20.2467 349.767 20.58V28H347.297ZM362.214 17.56C362.654 17.56 363.067 17.6067 363.454 17.7C363.84 17.7867 364.194 17.9167 364.514 18.09H367.464V19.01C367.464 19.1633 367.424 19.2833 367.344 19.37C367.264 19.4567 367.127 19.5167 366.934 19.55L366.014 19.72C366.08 19.8933 366.13 20.0767 366.164 20.27C366.204 20.4633 366.224 20.6667 366.224 20.88C366.224 21.3867 366.12 21.8467 365.914 22.26C365.714 22.6667 365.434 23.0133 365.074 23.3C364.72 23.5867 364.297 23.81 363.804 23.97C363.317 24.1233 362.787 24.2 362.214 24.2C361.827 24.2 361.45 24.1633 361.084 24.09C360.764 24.2833 360.604 24.5 360.604 24.74C360.604 24.9467 360.697 25.1 360.884 25.2C361.077 25.2933 361.327 25.36 361.634 25.4C361.947 25.44 362.3 25.4667 362.694 25.48C363.087 25.4867 363.49 25.5067 363.904 25.54C364.317 25.5733 364.72 25.6333 365.114 25.72C365.507 25.8 365.857 25.93 366.164 26.11C366.477 26.29 366.727 26.5367 366.914 26.85C367.107 27.1567 367.204 27.5533 367.204 28.04C367.204 28.4933 367.09 28.9333 366.864 29.36C366.644 29.7867 366.32 30.1667 365.894 30.5C365.474 30.8333 364.957 31.1 364.344 31.3C363.73 31.5067 363.03 31.61 362.244 31.61C361.464 31.61 360.787 31.5333 360.214 31.38C359.64 31.2333 359.164 31.0333 358.784 30.78C358.41 30.5333 358.13 30.2467 357.944 29.92C357.757 29.5933 357.664 29.2533 357.664 28.9C357.664 28.42 357.81 28.0167 358.104 27.69C358.397 27.3633 358.804 27.1033 359.324 26.91C359.07 26.77 358.867 26.5833 358.714 26.35C358.56 26.1167 358.484 25.8133 358.484 25.44C358.484 25.2867 358.51 25.13 358.564 24.97C358.617 24.8033 358.697 24.64 358.804 24.48C358.917 24.32 359.057 24.17 359.224 24.03C359.39 23.8833 359.587 23.7533 359.814 23.64C359.294 23.36 358.884 22.9867 358.584 22.52C358.29 22.0533 358.144 21.5067 358.144 20.88C358.144 20.3733 358.244 19.9167 358.444 19.51C358.65 19.0967 358.934 18.7467 359.294 18.46C359.66 18.1667 360.09 17.9433 360.584 17.79C361.084 17.6367 361.627 17.56 362.214 17.56ZM364.924 28.46C364.924 28.26 364.864 28.0967 364.744 27.97C364.624 27.8433 364.46 27.7467 364.254 27.68C364.047 27.6067 363.804 27.5533 363.524 27.52C363.25 27.4867 362.957 27.4633 362.644 27.45C362.337 27.43 362.017 27.4133 361.684 27.4C361.357 27.38 361.04 27.35 360.734 27.31C360.454 27.4633 360.227 27.6467 360.054 27.86C359.887 28.0667 359.804 28.3067 359.804 28.58C359.804 28.76 359.847 28.9267 359.934 29.08C360.027 29.24 360.17 29.3767 360.364 29.49C360.564 29.6033 360.82 29.69 361.134 29.75C361.447 29.8167 361.83 29.85 362.284 29.85C362.744 29.85 363.14 29.8133 363.474 29.74C363.807 29.6733 364.08 29.5767 364.294 29.45C364.514 29.33 364.674 29.1833 364.774 29.01C364.874 28.8433 364.924 28.66 364.924 28.46ZM362.214 22.62C362.52 22.62 362.787 22.58 363.014 22.5C363.24 22.4133 363.427 22.2967 363.574 22.15C363.727 22.0033 363.84 21.8267 363.914 21.62C363.994 21.4133 364.034 21.1867 364.034 20.94C364.034 20.4333 363.88 20.0333 363.574 19.74C363.274 19.44 362.82 19.29 362.214 19.29C361.607 19.29 361.15 19.44 360.844 19.74C360.544 20.0333 360.394 20.4333 360.394 20.94C360.394 21.18 360.43 21.4033 360.504 21.61C360.584 21.8167 360.697 21.9967 360.844 22.15C360.997 22.2967 361.187 22.4133 361.414 22.5C361.647 22.58 361.914 22.62 362.214 22.62Z" fill="white"/>
</g>
<defs>
<clipPath id="clip0_1473_4620">
<rect width="368" height="40" fill="white"/>
</clipPath>
<clipPath id="clip1_1473_4620">
<rect width="40" height="40" fill="white"/>
</clipPath>
</defs>
</svg>
